<?xml version="1.0" standalone="no"?>
<!DOCTYPE svg PUBLIC "-//W3C//DTD SVG 1.1//EN" "http://www.w3.org/Graphics/SVG/1.1/DTD/svg11.dtd" >
<!--
2013-9-30: Created.
-->
<svg>
<metadata>
Created by iconfont
</metadata>
<defs>

<font id="b2font" horiz-adv-x="1024" >
  <font-face
    font-family="b2font"
    font-weight="500"
    font-stretch="normal"
    units-per-em="1024"
    ascent="896"
    descent="-128"
  />
    <missing-glyph />
    
    <glyph glyph-name="shoucang" unicode="&#58902;" d="M719.93984535 303.63785444999996q13.39369054-62.24126916 23.6359254-112.66457639 4.72718508-21.27233286 8.66650623-42.54466493t7.48470957-38.60534455 5.90898096-29.54490635 3.15145646-15.3633511q2.36359254-15.75728307-7.09077761-20.87840012t-21.27233286-5.12111704q-3.93932116 0-11.42403073 2.7575245t-11.42403072 4.33325312l-205.6325478 119.75535323q-55.93835623-33.09029477-101.63447762-59.0898127-19.69660423-11.03009801-38.9992765-22.06019677t-35.05995535-20.48446816-27.18131381-15.75728308-15.36335112-7.87864153q-7.87864154-3.93932116-16.15121581-2.7575245t-14.96941916 5.90898096-9.84830211 11.42403074-1.57572862 13.78762327q0.78786393 3.15145646 3.93932116 15.36335111t7.09077761 29.15097439 9.06043821 37.42354789 10.63616603 41.75680099q11.81796269 48.84757862 26.78738184 110.30098388-46.48398607 40.18107239-83.51360201 71.69563931-15.75728307 13.39369054-31.12063495 26.39344989t-27.57524579 23.63592538-20.09053618 17.3330117-8.66650624 7.48470958q-9.45437017 8.66650623-16.15121581 19.30267228t-5.12111703 21.6662648 8.66650623 17.3330117 15.75728307 7.87864153l243.45002764 22.06019678 90.60437962 211.14759678q4.72718508 12.60582662 13.39369054 21.66626481t23.63592539 9.06043819q7.87864154 0 13.78762328-3.54538842t9.8483021-8.2725735 6.69684566-9.45437016 4.33325312-7.87864153l88.24078709-211.14759679 243.45002763-22.84806069q15.75728307-3.93932116 22.06019678-9.45437016t6.30291368-17.3330117q0-11.03009801-6.69684564-19.30267227t-16.93907973-20.0905362z"  horiz-adv-x="1024" />

    
    <glyph glyph-name="gouwucheman" unicode="&#58914;" d="M383.85546875 156.1875q15.02929688 0 28.4765625-5.53710938t23.33496094-15.42480468 15.8203125-23.33496094 5.93261719-28.4765625-5.93261719-28.4765625-15.8203125-23.33496094-23.33496094-15.8203125-28.4765625-5.93261719q-15.8203125 0-29.26757813 5.93261719t-23.33496093 15.8203125-15.8203125 23.33496094-5.93261719 28.4765625 5.93261719 28.4765625 15.8203125 23.33496094 23.33496094 15.42480468 29.26757812 5.53710938zM712.91796875 154.60546875q15.02929688 0 28.87207031-5.53710938t23.73046875-15.42480468 15.8203125-23.33496094 5.93261719-28.4765625-5.93261719-28.4765625-15.8203125-23.33496094-23.73046875-15.8203125-28.87207031-5.93261719-28.4765625 5.93261719-23.33496094 15.8203125-15.8203125 23.33496094-5.93261719 28.4765625 5.93261719 28.4765625 15.8203125 23.33496094 23.33496094 15.42480468 28.4765625 5.53710938zM845.80859375 603.90234375q22.1484375 0 34.40917969-5.93261719t17.40234375-14.63378906 4.74609375-18.58886719-2.76855469-17.00683594-10.28320313-29.26757812-17.00683593-48.64746094-18.19335938-52.60253906-14.63378906-41.1328125q-10.28320313-31.640625-25.70800781-43.90136719t-38.36425782-12.26074218l-27.68554687 0-50.625 0-66.4453125 0-74.35546875 0-196.171875 0 11.07421875-71.19140626 399.46289063 0q37.96875 0 37.96874999-32.43164062 0-15.8203125-7.51464843-27.29003906t-29.66308594-11.46972657l-37.96875 0-72.7734375 0-91.7578125 0-92.54882813 0-76.72851562 0-42.71484375 0q-15.8203125 0-26.49902344 7.11914063t-17.79785156 18.58886719-11.46972656 24.91699218-6.72363282 25.3125q-0.79101563 4.74609375-4.35058593 22.93945313t-8.70117188 45.48339844-11.46972656 60.90820312-12.65625 67.63183594q-15.02929688 79.89257813-34.01367188 177.97851563l-59.32617187-1e-8q-11.86523438 0-19.77539063 5.93261719t-13.05175781 14.23828125-7.11914062 17.79785156-1.97753907 17.40234375q0 15.8203125 10.67871094 26.10351563t28.87207032 10.28320312l16.61132812 0 16.61132813 0 19.77539062 0 26.89453125 0q15.8203125 0 25.3125-4.74609375t15.02929688-11.86523437 7.91015625-15.02929688 3.95507812-13.44726562q1.58203125-6.328125 3.1640625-17.79785156t3.1640625-23.33496094q2.37304688-14.23828125 4.74609375-30.05859375l541.0546875 0zM786.48242188 629.21484375l-289.51171876 0 104.41406251 104.4140625q18.19335938 18.19335938 39.94628906 18.58886719t39.94628906-17.79785156z"  horiz-adv-x="1024" />

    
    <glyph glyph-name="eye" unicode="&#58886;" d="M512 679.07291667c-232.98046875 0-421.875-312.29296875-421.875-312.29296875s188.89453125-320.51953125 421.875-320.51953125 421.875 320.51953125 421.875 320.51953125-188.89453125 312.29296875-421.875 312.29296875zM512 151.72916667000004c-116.49023438 0-210.9375 94.44726563-210.9375 210.9375s94.44726563 210.9375 210.9375 210.9375 210.9375-94.44726563 210.9375-210.9375-94.44726563-210.9375-210.9375-210.9375zM406.53125 362.66666667000004c0 58.27148438 47.19726563 105.46875 105.46875 105.46875s105.46875-47.19726563 105.46875-105.46875c0-58.27148438-47.19726563-105.46875-105.46875-105.46875-58.27148438 0-105.46875 47.19726563-105.46875 105.46875z"  horiz-adv-x="1024" />

    
    <glyph glyph-name="29" unicode="&#58908;" d="M351.265625 412.52929688l98.9296875-196.64648438c0 0 160.68164063 399.62109375 414.17578125 532.828125-6.16992188-95.1328125-30.90234375-177.609375 12.33984375-279.12304688-111.26953125-25.36523438-340.03125-310.86914063-414.22851563-450.40429687-105.046875 133.20703125-228.76171875 234.72070313-315.29882812 266.46679688L351.265625 412.52929688z"  horiz-adv-x="1024" />

    
    <glyph glyph-name="play1" unicode="&#58904;" d="M511.5 808C231.216 808 4 580.784 4 300.5S231.216-207 511.5-207 1019 20.216 1019 300.5 791.784 808 511.5 808zM511.5-111.844c-227.73 0-412.344 184.614-412.344 412.344S283.77 712.844 511.5 712.844s412.344-184.614 412.344-412.344S739.23-111.844 511.5-111.844zM384.624 522.532 765.25 300.5 384.624 78.468 384.624 522.532z"  horiz-adv-x="1024" />

    
    <glyph glyph-name="play" unicode="&#58891;" d="M251.60817742 792.06400036c-4.55111147 0-9.07946667-1.18328853-13.15271147-3.57262187-8.12373333-4.75591147-13.15271147-13.5395552-13.15271146-23.05137813l0-768.54613334c0-9.53457813 5.02897813-18.31822187 13.15271146-23.07413333 4.0732448-2.36657813 8.6016-3.54986667 13.15271147-3.54986667s9.07946667 1.18328853 13.1299552 3.54986667L922.07786702 358.11555555999996c8.12373333 4.7331552 13.15271147 13.5395552 13.15271147 23.05137813s-5.02897813 18.31822187-13.15271147 23.05137813L264.73813369 788.49137742C260.68764409 790.8579555599999 256.15928889 792.06400036 251.60817742 792.06400036L251.60817742 792.06400036z"  horiz-adv-x="1024" />

    
    <glyph glyph-name="jia" unicode="&#58954;" d="M550.34575241 422.01852175L550.34575241 690.88968642 473.92242387 690.88968642 473.92242387 422.01852175 205.0512592 422.01852175 205.0512592 345.59519321000005 473.92242387 345.59519321000005 473.92242387 76.72402854999996 550.34575241 76.72402854999996 550.34575241 345.59519321000005 819.21691707 345.59519321000005 819.21691707 422.01852175Z"  horiz-adv-x="1024" />

    
    <glyph glyph-name="pinglun" unicode="&#58889;" d="M758.58543066 645.88839532C758.58543066 645.88839532 284.82079619 645.88839532 284.82079619 645.88839532 230.29383859 645.88839532 186.11160469 602.16022324 186.11160469 548.18603791 186.11160469 548.18603791 186.11160469 216.14805984999998 186.11160469 216.14805984999998 186.11160469 162.21335727999997 230.29383859 113.17463140999996 284.82079619 113.17463140999996 284.82079619 113.17463140999996 423.01366394 113.17463140999996 423.01366394 113.17463140999996 423.01366394 113.17463140999996 521.70311374-5.236914490000004 521.70311374-5.236914490000004 521.70311374-5.236914490000004 620.43204696 113.17463140999996 620.43204696 113.17463140999996 620.43204696 113.17463140999996 758.6249147 113.17463140999996 758.6249147 113.17463140999996 813.15187167 113.17463140999996 857.33410621 162.21335727999997 857.33410621 216.14805984999998 857.33410621 216.14805984999998 857.33410621 548.18603791 857.33410621 548.18603791 857.33410621 602.16022324 813.11238825 645.88839532 758.58543066 645.88839532 758.58543066 645.88839532 758.58543066 645.88839532 758.58543066 645.88839532Z"  horiz-adv-x="1055" />

    
    <glyph glyph-name="iocnqipaotu" unicode="&#58907;" d="M599.89062527 503.453125m-228.51562473 0a5.35583497 5.35583497 0 1 1 457.03125028 0 5.35583497 5.35583497 0 1 1-457.03125028 0ZM283.48437527 187.046875m-158.203125 0a3.70788575 3.70788575 0 1 1 316.40625 0 3.70788575 3.70788575 0 1 1-316.40625 0ZM687.78124973 134.3125m-105.46875 0a2.47192383 2.47192383 0 1 1 210.9375 0 2.47192383 2.47192383 0 1 1-210.9375 0Z"  horiz-adv-x="1024" />

    
    <glyph glyph-name="photo" unicode="&#58915;" d="M1080.07666016 690.9401367099999h-166.77070313l-99.83144531 100.85976562c0 0-0.48867187 0.48867187-0.7453125 0.48867188l-0.48867188 0.48779297c-14.82626953 14.82626953-34.84423828 24.23144531-57.5859375 24.23144531h-207.55019531c-24.20595703 0-45.71367187-10.38164063-60.77197265-26.95517578v-0.25751953l-97.59550782-98.85498047h-170.49638672c-45.94570313 0-82.99951172-36.10283203-82.99951171-82.07402344v-499.56591797c0-45.99667969 37.05380859-83.30800781 82.99951171-83.30800781h861.83525391c45.71455078 0 83.02587891 37.31132812 83.02587891 83.30800781v499.56591797c0 45.97119141-37.31132812 82.07402344-83.02587891 82.07402344zM649.17177734 150.80039062000003c-125.78466797 0-228.31347656 102.83818359-228.31347656 228.90498046 0 126.3234375 102.5296875 228.90498047 228.31347656 228.90498047 126.01582031 0 228.31347656-102.57978516 228.31347657-228.90498047 0-126.06767578-102.29765625-228.90498047-228.31347657-228.90498046zM1064.53144531 558.6814453c-19.040625 0-34.58759766 15.57246094-34.58759765 34.84423828s15.54609375 34.84423828 34.58759765 34.84423829c19.01513672 0 34.58759766-15.57246094 34.58759766-34.84423829 0-19.27265625-15.57246094-34.84423828-34.58759766-34.84423828zM649.17177734 552.7453124900001c-95.36044922 0-172.4484375-77.371875-172.4484375-173.04082031 0-95.41054687 77.08974609-173.04082031 172.4484375-173.04082031 95.12753906 0 172.4484375 77.371875 172.4484375 173.04082031s-77.32089844 173.04082031-172.4484375 173.04082031z"  horiz-adv-x="1331" />

    
    <glyph glyph-name="feiji" unicode="&#58962;" d="M446.208-22.784l112.896 154.368-112.896 32.512L446.208-22.784 446.208-22.784 446.208-22.784zM47.104 340.48l321.024-97.28 395.264 335.616L456.96 217.344l343.04-105.984 176.64 679.168L47.104 340.48 47.104 340.48 47.104 340.48zM47.104 340.48"  horiz-adv-x="1024" />

    
    <glyph glyph-name="gift2e" unicode="&#58929;" d="M915.008 569.856l-806.016 0c-17.152 0-31.008-13.856-31.008-31.008l0-279.008c0-17.152 13.856-31.008 31.008-31.008l31.008 0 0-310.016c0-17.152 13.856-31.008 31.008-31.008l682.016 0c17.152 0 31.008 13.856 31.008 31.008l0 310.016 31.008 0c17.152 0 31.008 13.856 31.008 31.008l0 279.008c0 17.152-13.856 31.008-31.008 31.008zM450.016-19.168c0-17.152-13.856-31.008-31.008-31.008l-186.016 0c-17.152 0-31.008 13.856-31.008 31.008l0 248c0 17.152 13.856 31.008 31.008 31.008l186.016 0c17.152 0 31.008-13.856 31.008-31.008l0-248zM450.016 352.832c0-17.152-13.856-31.008-31.008-31.008l-248 0c-17.152 0-31.008 13.856-31.008 31.008l0 124c0 17.152 13.856 31.008 31.008 31.008l248 0c17.152 0 31.008-13.856 31.008-31.008l0-124zM822.016-19.168c0-17.152-13.856-31.008-31.008-31.008l-186.016 0c-17.152 0-31.008 13.856-31.008 31.008l0 248c0 17.152 13.856 31.008 31.008 31.008l186.016 0c17.152 0 31.008-13.856 31.008-31.008l0-248zM884 352.832c0-17.152-13.856-31.008-31.008-31.008l-248 0c-17.152 0-31.008 13.856-31.008 31.008l0 124c0 17.152 13.856 31.008 31.008 31.008l248 0c17.152 0 31.008-13.856 31.008-31.008l0-124zM374.336 569.888l285.184 0c48.896 35.072 95.104 80.704 100.608 130.432 2.656 24.288-2.528 59.84-42.624 91.488-22.24 17.568-44.8 26.464-66.976 26.464-70.752 0-110.752-86.752-132.416-164.224-25.856 98.784-75.776 225.824-161.472 225.824-25.024 0-49.92-10.816-74.112-32.192-47.744-42.208-52.416-86.112-47.968-115.52 10.016-65.696 76.096-122.144 139.776-162.272zM650.496 743.84c6.848 0 15.68-4.096 25.504-11.904 16-12.576 15.104-20.384 14.848-22.976-2.976-27.136-53.856-69.76-113.184-104.928 17.44 75.04 45.984 139.808 72.832 139.808zM327.04 790.4c7.776 6.88 19.264 15.072 29.568 15.072 38.368 0 77.856-100.736 100.832-198.72-72.48 38.624-147.392 93.408-154.112 137.376-0.896 6.08-3.392 22.336 23.68 46.272z"  horiz-adv-x="1024" />

    
    <glyph glyph-name="jt-block-down" unicode="&#58888;" d="M512 211.33447501L166.66895001 556.665525 857.33207299 556.665525Z"  horiz-adv-x="1024" />

    
    <glyph glyph-name="home" unicode="&#58972;" d="M959.390493 368.238015c0-23.127743-18.419512-41.87369-41.138956-41.87369-12.335956 0-23.276123 5.640464-30.817889 14.393825L541.089525 693.270762c-16.065907 16.353456-42.113143 16.353456-58.179051 0L237.802034 443.795874c2.877537-5.636371 4.653997-11.926634 4.653997-18.690688l0-165.475775c0-0.328481-0.089028-0.635473-0.097214-0.961908l0.297782 0 0-163.003468c0-23.125697 18.506493-41.871643 41.337477-41.871643l82.568531 0L366.562607 218.26123500000006c0 22.850427 18.520819 41.3692 41.3692 41.3692L614.775758 259.63043500000003c22.848381 0 41.3692-18.518772 41.3692-41.3692 0-22.846334-18.520819-41.3692-41.3692-41.3692L449.299983 176.89203499999996l0-165.473729c0-22.427802-17.875113-40.583301-40.142256-41.246403l0-0.121773L263.148305-29.949870000000033c-57.115835 0-103.418394 46.864354-103.418394 104.678084L159.729911 258.66852700000004l0.084934 0c-0.00614 0.326435-0.097214 0.633427-0.097214 0.961908L159.717631 364.31977500000005l-23.162536-23.575952c-7.541767-8.745175-18.475793-14.379499-30.807656-14.379499-22.719444 0-41.138956 18.745946-41.138956 41.87369 0 11.862165 4.895497 22.520923 12.687974 30.141484l-0.237407 0.2415 362.215602 368.668571c40.164768 40.881083 105.285928 40.881083 145.450696 0l361.569896-368.010585-0.299829-0.305969C954.175725 391.319709 959.390493 380.43684800000005 959.390493 368.238015zM614.733802 53.79341599999998c0.443092 0 0.854461-0.119727 1.294482-0.132006l0 0.132006 122.683157 0c22.828938 0 41.337477 18.745946 41.337477 41.871643L780.048919 258.66852700000004l0.534166 0c-0.016373 0.496304-0.145309 0.961908-0.145309 1.464351 0 23.125697 18.417465 41.87369 41.138956 41.87369 22.719444 0 41.136909-18.747993 41.136909-41.87369 0-0.502443-0.125867-0.968048-0.145309-1.464351l0.405229 0 0-183.940312c0-57.812707-46.299489-104.678084-103.418394-104.678084l-143.528927 0 0 0.132006c-0.441045-0.014326-0.852414-0.132006-1.294482-0.132006-22.719444 0-41.138956 18.7439-41.138956 41.869596C573.594847 35.044399999999996 592.014358 53.79341599999998 614.733802 53.79341599999998z"  horiz-adv-x="1024" />

    
    <glyph glyph-name="shezhi1" unicode="&#58917;" d="M881.34067573 477.23226562l-61.23568359-35.65107421c3.43458985-18.72333984 5.68740234-37.85009766 5.68740233-57.5859375 0-19.73267578-2.2528125-38.85943359-5.6858203-57.57960938l61.2356836-35.64791016c25.01349609-14.56101563 33.58494141-46.81546875 19.14257812-72.03621092l-52.29720703-91.34015626c-14.44078125-25.21916016-46.42787109-33.86021484-71.44294922-19.30236328l-61.86375 36.01810546c-28.90529297-24.81099609-61.7625-45.08789063-98.28210937-58.12382812l0-44.75566406c0-29.12519531-23.41564453-52.73542969-52.29878907-52.73542969l-104.59757812 0c-28.88314453 0-52.29878906 23.61181641-52.29878906 52.73542969l0 44.75566406c-36.51960938 13.03751953-69.37681641 33.31441406-98.28210939 58.12382812l-61.86374999-36.01810546c-25.01507812-14.55943359-57.00058594-5.91837891-71.43978516 19.30236328L123.51448433 218.73310547000005c-14.44078125 25.21916016-5.87091797 57.47361328 19.14257812 72.03621094l61.2356836 35.64791015c-3.43300781 18.71859375-5.68582031 37.84693359-5.68582032 57.57960938 0 19.73583984 2.2528125 38.86259766 5.68582032 57.58751953l-61.2356836 35.64791015c-25.01349609 14.56101563-33.58335938 46.81546875-19.14257812 72.03621095L175.81643745 640.60546875c14.43919922 25.22390625 46.42470703 33.868125 71.43978516 19.30394531l61.86533204-36.0149414c28.90529297 24.81257813 61.7625 45.08789063 98.28052733 58.12382812L407.40208198 726.77080078C407.40208198 755.89599609 430.81772652 779.5078125 459.70087105 779.5078125l104.59757812 0c28.88314453 0 52.29878906-23.61181641 52.29878906-52.73701172l0-44.7525c36.51802734-13.03751953 69.37523437-33.31125001 98.28052735-58.12382812l61.86533203 36.0149414c25.01507812 14.56417969 57.00216797 5.91996094 71.44294922-19.30394531l52.29720703-91.33699218C914.92561714 524.0493164100001 906.35417183 491.79328125 881.34067573 477.23226562zM842.11895698 545.7342187500001l-26.14939453 45.67166016c-7.22039062 12.60878906-23.21472656 16.93248047-35.72068359 9.65355468l-72.65478516-42.30035156c-36.87873047 41.94597657-86.71587891 72.03621094-143.2940625 83.61984375L564.3000312 700.40941406c0 14.56101563-11.70703125 26.36138672-26.14939453 26.36138672l-52.30037109 0c-14.44236329 0-26.14939453-11.80037109-26.14939453-26.36138672l0-58.03048828c-56.57818359-11.58363281-106.41533203-41.67386719-143.2940625-83.61984375l-72.65478516 42.30035156c-12.50595703 7.27892578-28.49871094 2.95523437-35.72068359-9.65355468l-26.14939453-45.67166016c-7.22039062-12.60878906-2.93466797-28.73759766 9.57128906-36.01810547l72.9458789-42.46488281c-8.69009766-26.23166016-13.89339844-54.07066406-13.89339842-83.25597656 0-29.17898437 5.20171875-57.01798828 13.89181639-83.24806641l-72.9458789-42.46804687c-12.50595703-7.28208985-16.79167969-23.40773438-9.57128907-36.01810547l26.14939454-45.66691407c7.22197266-12.61511719 23.21472656-16.93564453 35.7206836-9.65039062l72.65162108 42.2971875c36.8803125-41.94597657 86.71746094-72.03621094 143.29722657-83.61667969l0-58.03523437c0-14.55943359 11.70703125-26.36138672 26.14939453-26.36138672l52.3003711 0c14.44236329 0 26.14939453 11.80353516 26.14939452 26.36138672l0 58.03523437c56.57976563 11.58205078 106.41691406 41.67228516 143.29564453 83.61667969l72.65320313-42.2971875c12.50595703-7.28367188 28.50029297-2.96472656 35.72068359 9.65039062l26.14939453 45.66691407c7.22039062 12.61037109 2.93466797 28.73601563-9.57128906 36.01810546l-72.94587891 42.46804688c8.69009766 26.22849609 13.89181641 54.06908203 13.89181641 83.24806641 0 29.18373047-5.20171875 57.02115234-13.89181641 83.2528125l72.94587891 42.46646484C845.05362495 516.99662109 849.33776558 533.1254296899999 842.11895698 545.7342187500001zM512.00124214 252.16775391c-72.21023437 0-130.74697266 59.02400391-130.74697266 131.82908203 0 72.81298828 58.53673828 131.84173828 130.74697266 131.84173828 72.20865234 0 130.74697266-59.02875001 130.74697267-131.84173828C642.74663277 311.19017578 584.20989449 252.16775391 512.00124214 252.16775391zM512.00124214 463.09998047c-43.32708985 0-78.44818359-35.41376953-78.44818359-79.10314453 0-43.68304688 35.12267578-79.09365234 78.44818359-79.09365235 43.32392578 0 78.44660156 35.40902343 78.44660156 79.09365235C590.4478437 427.68621094 555.32516791 463.09998047 512.00124214 463.09998047z"  horiz-adv-x="1024" />

    
    <glyph glyph-name="pay-weixin" unicode="&#58975;" d="M838.91889863 753.30491104l-642.23926171 0c-28.16080664 0-50.98822998-22.82832246-50.98822999-50.98912911l0-642.23926172c0-28.16080664 22.82832246-50.9891291 50.98822999-50.98912909l642.23926171 0c28.16170664 0 50.9891291 22.82922158 50.9891291 50.98912909L889.90802862 702.31578193C889.90892773 730.47568945 867.08060527 753.30491104 838.91889863 753.30491104zM517.8015169 143.61727911000003c-37.37775761 0-73.06376308 6.37038106-105.81325841 17.83041063-20.82987773-13.84791153-55.79906836-36.60877881-69.5237625-42.92699589-20.1508374-9.31318594-14.35156963 10.74591386-14.35156962 10.74591386l11.93400879 68.76018018c-66.09528721 46.042483-108.54740479 117.12578906-108.54740479 196.95656338 0 138.82087969 128.17030078 251.35618008 286.28669795 251.35618008 96.89760352 0 182.45659482-42.28932744 234.28845264-106.95548408l-280.80131661-130.00865449c0 0-22.88498378-8.66022803-42.94228534 3.57237773-20.06989277 12.23530489-46.55063847 32.32588271-46.55063849 32.32588271s-30.82839873 26.22711797-14.28141708-21.5529873l42.95847393-100.5284417c0 0 5.07256084-29.96048672 39.32134013-10.78818574 26.82521279 14.97844424 234.92072373 140.47215996 324.39296162 194.47064912 19.12193526-33.70554756 29.93080693-71.66611055 29.93080694-111.88953896C804.10170518 256.14898300000004 675.92061143 143.61727911000003 517.8015169 143.61727911000003z"  horiz-adv-x="1024" />

    
    <glyph glyph-name="cuowu" unicode="&#58946;" d="M535.89848232 384l282.43660927 282.43660927c6.5177679 6.5177679 6.5177679 17.38071443 0 23.89848232s-17.38071443 6.5177679-23.89848232 0l-282.43660927-282.43660927-282.43660927 282.43660927c-6.5177679 6.5177679-17.38071443 6.5177679-23.89848232 0s-6.5177679-17.38071443 0-23.89848232l282.43660927-282.43660927-282.43660927-282.43660927c-6.5177679-6.5177679-6.5177679-17.38071443 0-23.89848232s17.38071443-6.5177679 23.89848232 0l282.43660927 282.43660927 282.43660927-282.43660927c6.5177679-6.5177679 17.38071443-6.5177679 23.89848232 0s6.5177679 17.38071443 0 23.89848232L535.89848232 384z"  horiz-adv-x="1024" />

    
    <glyph glyph-name="jt-right" unicode="&#58887;" d="M674.88245709 384l-296.14726024-325.88839531-29.61510793 32.58883953 266.5321523 293.29955578-266.53597131 293.29955578 29.61510793 32.58883953 296.15107925-325.88839531z"  horiz-adv-x="1024" />

    
    <glyph glyph-name="jifen" unicode="&#58974;" d="M441.3094833 492.05935869c92.00559638 0 187.69861055 20.23583467 245.16838213 58.81882676l0-70.24083135 53.24272998 1e-8L739.72059541 634.42969951c0 92.45528174-153.70240869 142.37034082-298.32117539 142.37034082S142.98830791 726.88498037 142.98830791 634.42969951l0-419.73618428c0-92.45528174 153.70240869-142.37034082 298.32117539-142.37034081L441.3094833 125.47596680000004c-151.90366729 0-245.16838213 51.98361152-245.16838213 89.21754755L196.14110117 340.87518779000004c57.46977158-38.49305449 153.07284902-58.81882676 245.16838213-58.81882675l0 53.24272998c-151.90366729 0-245.16838213 51.98361152-245.16838213 89.21754755L196.14110117 550.78824786C253.61087276 512.29519336 349.30388691 492.05935869 441.3094833 492.05935869zM441.3094833 723.64724707c151.90366729 0 245.16838213-51.98361152 245.16838213-89.21754756s-93.26471484-89.21754756-245.16838213-89.21754756-245.16838213 51.98361152-245.16838213 89.21754756S289.49575273 723.64724707 441.3094833 723.64724707zM679.82252451 462.91975635c-132.11751797 0-201.18916758-50.81442979-201.18916758-100.99930078L478.63335693 92.19926045c0-50.18487099 69.16158721-100.99930078 201.18916758-100.99930078 131.12821055 0 200.10992344 50.0949334 201.18916758 99.92005576l0.08993672 0L881.10162881 361.92045556999994C881.01169209 412.10532656 811.9400416 462.91975635 679.82252451 462.91975635zM679.82252451 409.76696308c97.67162988 0 148.03637432-33.54651738 148.03637432-47.84650751 0-14.29999013-50.36474443-47.84650752-148.03637432-47.84650752S531.78614932 347.62046542999997 531.78614932 361.92045556999994C531.78614932 376.2204457 582.15089463 409.76696308 679.82252451 409.76696308zM679.82252451 44.35275292999995c-97.67162988 0-148.03637432 33.54651738-148.03637432 47.84650752l0 64.39492353c33.7263917-18.34715742 83.28170302-30.57859511 148.03637432-30.57859511s114.2200459 12.23143769 148.03637432 30.57859511L827.85889883 92.19926045C827.85889883 77.89927031000002 777.4941544 44.35275292999995 679.82252451 44.35275292999995zM679.82252451 179.25831885000002c-97.67162988 0-148.03637432 33.54651738-148.03637432 47.84650751l0 64.39492354c33.7263917-18.34715742 83.28170302-30.57859511 148.03637432-30.57859511s114.2200459 12.23143769 148.03637432 30.57859511l0-64.39492354C827.85889883 212.80483622999998 777.4941544 179.25831885000002 679.82252451 179.25831885000002z"  horiz-adv-x="1024" />

    
    <glyph glyph-name="zhiding" unicode="&#58942;" d="M128 768l768 0 0-89.6-768 0 0 89.6ZM732.288 400 555.7888 586.1376c-10.9504 11.2064-26.4128 18.4896-43.7888 18.4896s-32.832-7.2832-43.6032-18.6048L291.5264 400.1344c-9.2288-10.0224-15.1104-22.9696-15.1104-37.3248 0-30.816 26.3808-55.8016 58.8992-55.8016 0.4544 0 0.896 0.0576 1.344 0.0704l0-0.352L416 306.7264 416 0l192 0L608 306.7264l77.1904 0 0 0.448c1.1648-0.064 2.3104-0.1792 3.5008-0.1792 32.5248 0 58.8992 24.992 58.8992 55.8144C747.5904 377.1648 741.7024 390.1056 732.288 400z"  horiz-adv-x="1024" />

    
    <glyph glyph-name="more" unicode="&#58911;" d="M779.535731 385.695618c0-50.520627 40.056298-91.486644 89.447195-91.486644 49.408293 0 89.455381 40.966017 89.455381 91.486644 0 50.52779-40.047088 91.485621-89.455381 91.485621C819.592029 477.181239 779.535731 436.224432 779.535731 385.695618L779.535731 385.695618zM600.625992 385.695618c0 50.52779-40.049135 91.485621-89.448218 91.485621-49.400107 0-89.455381-40.957831-89.455381-91.485621 0-50.520627 40.055275-91.486644 89.455381-91.486644C560.57788 294.208974 600.625992 335.174991 600.625992 385.695618L600.625992 385.695618zM242.819816 385.695618c0 50.52779-40.008202 91.485621-89.454358 91.485621-49.400107 0-89.448218-40.957831-89.448218-91.485621 0-50.520627 40.048111-91.486644 89.448218-91.486644C202.81059 294.208974 242.819816 335.174991 242.819816 385.695618L242.819816 385.695618zM242.819816 385.695618"  horiz-adv-x="1024" />

    
    <glyph glyph-name="write" unicode="&#58909;" d="M214.55105991-34.529716880000024C195.60519089-52.047974090000025 161.32734946-87.82678908000003 178.80649835-5.2689999899999975 209.47291428 129.47042792000002 547.84438772 647.74516154 833.04484967 697.4671051400001 913.01383167 697.4671051400001 684.35108957 506.04879239 684.35108957 506.04879239 684.35108957 506.04879239 762.90721219 496.28817951 814.508 550.78760124 783.58180054 389.4386689 637.42753183 389.99013368 599.6820427 377.15265788 643.83857092 370.65145783 676.67481192 351.12013507999995 745.01385455 371.08126604999995 728.35120435 325.33495628000003 662.5543714 269.04077696 425.99112756 213.32836902999998 321.41250003 175.74094952999997 233.4969281-17.011464609999962 214.55105991-34.529716880000024Z"  horiz-adv-x="1024" />

    
    <glyph glyph-name="love" unicode="&#58895;" d="M661.49640125 664.53916022c-30.75578719 0-61.90203-7.03970719-90.07141125-20.35835719-21.82999969-10.32164156-42.00799875-24.46245469-59.20721719-41.4055275-17.19825937 16.94307281-37.37625844 31.08484406-59.20721718 41.40648656-28.16842219 13.31769094-59.313705 20.35739812-90.07045219 20.35739812-54.34619344 0-104.76672844-20.54351156-141.97414125-57.84781875-37.19398219-37.2899175-57.677055-87.81598031-57.677055-142.26962156 0-132.25689 112.323525-235.00418719 282.34521-390.53201906l6.86702437-6.28086188 59.71567313-53.6842425 11.69830875 10.51639032 47.9089575 43.06616156 6.96199969 6.36816281c170.03223844 155.53358812 282.36151875 258.2856825 282.36151874 390.54640969 0 54.45364031-20.48307281 104.97874406-57.677055 142.26962156C766.26312969 643.99468865 715.84259469 664.53916022 661.49640125 664.53916022L661.49640125 664.53916022z"  horiz-adv-x="1024" />

    
    <glyph glyph-name="code" unicode="&#59079;" d="M357.3125 144.9375c-10.79824219 0-21.59472656 4.1203125-29.83183594 12.35566406l-196.875 196.875c-16.47597656 16.47597656-16.47597656 43.18769531 0 59.66191407l196.875 196.87499999c16.47597656 16.47421875 43.1859375 16.47421875 59.66191407 1e-8 16.47246094-16.47421875 16.47246094-43.1859375 0-59.66191407L220.09941406 384l167.04316406-167.04316406c16.47246094-16.47597656 16.47246094-43.1859375 0-59.66191406C378.90371094 149.05781249999995 368.11074219 144.9375 357.3125 144.9375zM666.6875 144.9375c10.79824219 0 21.59472656 4.1203125 29.83183594 12.35566406l196.875 196.875c16.47597656 16.47597656 16.47597656 43.18769531 0 59.66191407l-196.875 196.87499999c-16.47597656 16.47421875-43.1859375 16.47421875-59.66191407 1e-8-16.47246094-16.47421875-16.47246094-43.1859375 0-59.66191407L803.90058594 384l-167.04316406-167.04316406c-16.47246094-16.47597656-16.47246094-43.1859375 0-59.66191406C645.09628906 149.05781249999995 655.88925781 144.9375 666.6875 144.9375z"  horiz-adv-x="1024" />

    
    <glyph glyph-name="weibo" unicode="&#58894;" d="M710.984375 395.72395833c-32.34375001 6.328125-16.875 23.90625001-16.875 23.90625s31.640625 52.734375-6.32812499 90.703125c-47.109375 47.109375-162.421875-6.328125-162.42187501-6.328125-44.296875-13.359375-32.34375001 6.328125-26.01562499 40.078125 0 40.078125-13.359375 107.578125-130.78125001 67.5C251.84374999 572.20833333 151.296875 431.58333333 151.296875 431.58333333 80.984375 338.77083332999996 90.828125 266.34895832999996 90.828125 266.34895832999996c17.578125-158.90625001 186.328125-202.5 317.8125-213.04687501 138.515625-10.546875 324.84375001 47.8125 381.09375 168.04687501C846.6875 341.58333332999996 743.328125 389.39583333 710.984375 395.72395833L710.984375 395.72395833zM418.484375 98.30208331999995c-137.109375-6.328125-248.203125 62.578125-248.20312499 153.98437501 0 91.40625001 111.09375001 165.234375 248.20312499 171.5625 137.109375 6.328125 248.203125-49.921875 248.203125-142.03125C667.390625 190.41145832999996 556.296875 104.63020832999996 418.484375 98.30208331999995L418.484375 98.30208331999995zM391.0625 363.38020832999996C253.25 347.20833332999996 269.421875 217.83333332999996 269.421875 217.83333332999996s-1.40625001-40.78125001 37.265625-61.875C386.84374999 112.36458331999995 469.8125 139.08333332999996 512 193.22395832999996 554.1875 247.36458331999995 529.578125 379.55208331999995 391.0625 363.38020832999996L391.0625 363.38020832999996zM356.609375 181.97395832999996c-26.015625-2.8125-46.40625001 11.953125-46.40625 33.046875 0 21.796875 18.28125001 44.296875 44.296875 46.40625001 29.53125001 2.8125 49.21875001-14.0625 49.21875001-35.85937501C403.015625 205.17708331999995 381.921875 184.78645832999996 356.609375 181.97395832999996L356.609375 181.97395832999996zM437.46874999 251.58333332999996c-8.4375-6.328125-19.6875-5.625-23.90624999 2.109375-4.921875 7.734375-2.8125 19.6875 5.625 26.015625 10.546875 7.734375 21.09375001 5.625 25.3125-2.109375C449.421875 269.86458331999995 446.609375 257.91145832999996 437.46874999 251.58333332999996L437.46874999 251.58333332999996zM777.78125001 451.97395833c11.25 0 20.390625 8.4375 22.49999998 18.984375 0 0.703125 0 1.40625001 0 2.109375 16.875 151.875-124.453125 125.15625001-124.45312499 125.15625-12.65625001 0-22.5-9.84375001-22.5-22.5 0-12.65625001 9.84375001-22.5 22.5-22.5 101.25 22.5 78.75-78.75 78.75-78.75C755.28125001 461.81770833 765.828125 451.97395833 777.78125001 451.97395833L777.78125001 451.97395833zM761.609375 716.34895833c-48.515625 11.25-99.140625 1.40625001-113.20312499-1.40625-1.40625001 0-2.109375-1.40625001-2.81250002-1.40625-0.703125 0-0.703125-0.703125-0.70312499-0.703125-14.0625-4.21875001-23.90625001-16.875-23.90625-31.640625 0-18.28125001 14.765625-33.046875 33.04687499-33.046875 0 0 17.578125 2.109375 29.53125001 7.03125001 11.953125 4.921875 113.203125 3.515625 163.125-80.85937501 27.421875-61.171875 11.953125-102.65625001 9.84375001-108.984375 0 0-6.328125-16.171875-6.32812501-31.640625 0-18.28125001 14.765625-29.53125001 33.046875-29.53125 15.46875001 0 28.125 2.109375 31.640625 27.421875l0 0C969.03125001 611.58333333 848.796875 695.95833333 761.609375 716.34895833L761.609375 716.34895833zM761.609375 716.34895833"  horiz-adv-x="1024" />

    
    <glyph glyph-name="share" unicode="&#58898;" d="M747.46511639 511.54360492C696.78125 511.54360492 652.10174427 537.1700582000001 625.63154098 576.15915738 625.63154098 576.15915738 415.91061065 430.97529098 415.91061065 430.97529098 420.89462214 416.19985492 423.70058115 400.44331394 423.70058115 384 423.70058115 358.11845902000005 416.97020327 333.82630819999997 405.2361918 312.67369180000003 405.2361918 312.67369180000003 616.74273279 176.71220902000005 616.74273279 176.71220902000005 641.21148279 224.04069754 690.50218032 256.45639508 747.46511639 256.45639508 828.73982541 256.45639508 894.63081394 190.56540738 894.63081394 109.29069754 894.63081394 28.01598851999995 828.73982541-37.875 747.46511639-37.875 666.19040738-37.875 600.29941885 28.01598851999995 600.29941885 109.29069754 600.29941885 119.37645326999996 601.31976721 129.20712214000002 603.26235492 138.72383689000003 603.26235492 138.72383689000003 381.70930246 281.16061064999997 381.70930246 281.16061064999997 354.98401148 253.82703525 317.76090081 236.83430246 276.53488361 236.83430246 195.26017459 236.83430246 129.36918606 302.72529097999995 129.36918606 384 129.36918606 465.27470902 195.26017459 531.16569754 276.53488361 531.16569754 327.21875 531.16569754 371.89825573 505.53924427 398.36845902 466.55014507 398.36845902 466.55014507 608.08938935 611.75363361 608.08938935 611.75363361 603.10537786 626.50944754 600.29941885 642.2659885200001 600.29941885 658.70930246 600.29941885 739.9840114799999 666.19040738 805.875 747.46511639 805.875 828.73982541 805.875 894.63081394 739.9840114799999 894.63081394 658.70930246 894.63081394 577.43459262 828.73982541 511.54360492 747.46511639 511.54360492Z"  horiz-adv-x="1024" />

    
    <glyph glyph-name="face" unicode="&#59000;" d="M512.443747-62.210126c-246.242448 0-446.544643 200.301795-446.544643 446.546641 0 246.22446 200.330776 446.525656 446.544643 446.525656 246.200476 0 446.528054-200.301196 446.528054-446.528654C958.971801 138.09147 758.670206-62.210126 512.443747-62.210126L512.443747-62.210126zM512.443747 767.07442c-211.064898 0-382.755492-171.691593-382.755492-382.738104 0-211.066897 171.690594-382.757091 382.755492-382.757091 211.053306 0 382.741501 171.690194 382.741501 382.757091C895.185248 595.382826 723.494055 767.07442 512.443747 767.07442L512.443747 767.07442zM369.950158 381.139483c-26.436476 0-47.839365 21.406886-47.839365 47.850557l0 63.787152c0 26.443072 21.402889 47.840964 47.839365 47.840964 26.444071 0 47.845361-21.397892 47.845361-47.840964l0-63.787152C417.795519 402.57455 396.364649 381.139483 369.950158 381.139483L369.950158 381.139483zM657.019325 381.139483c-26.411093 0-47.840364 21.406886-47.840364 47.850557l0 63.787152c0 26.443072 21.429471 47.840964 47.840364 47.840964 26.407895 0 47.840364-21.397892 47.840364-47.840964l0-63.787152C704.859689 402.57455 683.42722 381.139483 657.019325 381.139483L657.019325 381.139483zM703.086571 225.206414c0-17.447371-14.358009-31.722492-31.907711-31.722492L352.17441 193.483922c-17.549701 0-31.907711 14.275121-31.907711 31.722492s14.358009 31.722492 31.907711 31.722492L671.179884 256.928906C688.728562 256.928906 703.086571 242.653785 703.086571 225.206414z"  horiz-adv-x="1024" />

    
    <glyph glyph-name="icon" unicode="&#58961;" d="M512 736.8245461c-218.42455431 0-395.49121276-177.06665768-395.49121276-395.49121276s177.06665768-395.49121276 395.49121276-395.49121276c218.41981207 0 395.49121276 177.06665768 395.49121276 395.49121276S730.41981207 736.8245461 512 736.8245461zM619.01513894 119.36901037999996c-23.25986467-8.03838807-41.53654564-14.23732957-55.44819691-18.63239622-13.71877478-4.39032443-29.82479843-6.58469602-48.10147863-6.58469602-28.02566661 0-49.90140146 6.224237-65.3948028 18.29169946-15.70604087 12.42871173-23.45748416 27.77350333-23.45748417 46.79165409 0 7.31193678 0.59286003 14.62782632 1.77462656 22.30101236 1.2110148 7.6723958 3.18405187 16.45699665 5.58157697 25.96883826l29.00428038 91.7786431c2.59040159 8.76009559 1.12248129 16.79848366 2.92635613 24.85663321 1.78964582 7.6723958 2.57538311 14.98433258 2.57538311 21.18880808 0 12.08722472 1.10746204 20.12561279-4.2709614 24.52067946-5.57683397 4.75078268-15.69102161 3.38641514-31.00656573 3.38641514-7.57358605 0-15.32028635-1.08769979-23.0622444-2.91687011-7.94906356-2.19990483-14.70213157-0.46954502-20.27896554-2.66944986l7.77120555 28.52445911c18.86954023 6.95068751 37.14622121 12.79391376 54.45930688 17.55022969 17.29806719 5.11203195 33.77482532 7.30640353 49.09036943 7.30640352 28.0209236 0 49.51090393-5.85824473 64.60353304-17.92570796 15.10290458-12.06746246 31.8025785-27.77824633 31.8025785-46.79639707 0-4.02907517-0.61815477-10.97976268-1.60704558-21.21331259-0.98414704-9.86755762-2.98089912-19.01340774-5.76892099-27.41225406L552.04807208 216.28419068000005c-2.19990483-7.31193678-4.37056218-15.73054536-6.16969401-25.24238773-1.99754233-9.14585012-2.98089912-16.45699665-2.98089912-21.20856958 0-12.06746246 3.17851863-20.46630956 9.15059313-24.86137622 6.16495099-4.37056218 16.69967391-6.56493376 31.59468197-6.56493376 6.96096376 0 14.92504657 1.08769979 23.85272469 3.26310013 8.93321059 2.19516183 15.29578185 4.02907517 19.27031402 5.86298773L619.01513894 119.36901037999996zM613.85884024 490.14666643c-13.31800178-11.34101194-29.59793066-16.81824592-48.48723314-16.81824593-18.87507348 0-35.17871738 5.47723398-48.90223518 16.81824593-13.51562127 10.97976268-20.26868929 24.49538395-20.2686893 40.59192234 0 15.73528837 6.75306803 29.27146291 20.2686893 40.59192235 13.72351778 11.32124969 30.02795194 17.18423741 48.90223518 17.18423742 18.86479724 0 35.16923138-5.83848323 48.48723314-17.18423742 13.51562127-11.34101194 20.28370854-24.88113848 20.28370854-40.59192235C634.14254878 514.6428413900001 627.37446152 501.1264291 613.85884024 490.14666643z"  horiz-adv-x="1024" />

    
    <glyph glyph-name="qq" unicode="&#59451;" d="M273.51 415.826l-1.198 3.727-0.972 4.844-0.646 2.652v10.926l1.158 4.3 1.177 4.547 1.557 4.772 2.099 5.315 2.754 5.52 3.892 5.529v3.87l0.378 3.625 0.605 4.926 1.669 5.54 1.536 5.98 1.229 2.744 1.413 2.56 1.822 2.847 1.987 2.12v13.67l1.147 7.045 1.157 8.182 2.058 9.79 2.837 10.188 2.11 5.601 2.088 6.093 2.294 5.683 2.744 6.093 2.796 6.666 3.215 6.247 3.615 6.666 4.557 6.656 2.109 3.82 2.243 3.123 4.884 7.045 5.028 7.025 5.704 7.229 6.113 7.035 6.635 6.932 6.923 7.127 8.376 7.69 5.314 4.68 6.482 5.049 6.574 4.454 7.107 4.28 6.83 3.81 7.7 3.154 8.182 3.88 8.13 2.663 8.111 2.765 8.765 2.744 8.756 2.089 9.205 1.74 9.34 1.506 9.215 1.229 9.206 1.26 9.82 0.532h29.01l9.667-1.219 9.717-1.157 9.902-1.034 9.196-2.212 9.708-2.068 9.113-2.376 9.984-2.652 9.134-3.236 8.745-3.697 9.339-3.911 8.52-4.27 8.284-4.752 8.12-5.232 6.994-4.864 3.246-2.745 3.4-2.007 6.492-5.509 5.468-5.325 5.458-5.509 5.315-6.082 4.382-5.899 5.223-6.092 3.635-6.544 3.686-5.816 3.912-6.769 3.246-5.888 5.458-12.462 2.683-6.44 2.1-5.97 2.098-6.483 1.885-6.092 1.31-5.243 1.7-6.165 2.98-11.008 1.905-9.636 1.239-9.318 1.065-7.496 1.679-11.417 0.379-1.813 1.341-2.058 3.615-5.909 2.324-4.003 2.059-4.168 2.621-4.465 2.314-5.355 1.506-5.479 1.638-6.01 1.24-6.165 0.562-3.031 0.523-3.738v-3.246l-0.523-3.215v-4.004l-0.942-3.88-1.72-7.517-1.976-3.799-1.465-4.27v-1.065l0.697-1.321 1.966-3.123 8.56-12.667 6.759-9.513 3.236-6.349 4.362-6.953 3.799-7.618 4.383-8.141 4.382-9.155 4.936-10.363 2.785-6.348 2.54-6.206 2.191-6.543 2.16-5.888 1.65-6.185 1.679-5.806 2.12-11.326 1.679-11.57 1.157-10.261v-14.48l-0.778-5.13-1.106-8.858-1.516-7.956-2.355-7.22-0.88-2.938-1.65-3.543-1.371-2.468-1.844-3.041-1.618-1.915-2.058-2.478-1.843-1.997-1.966-1.71-2.355-1.034-2.12-1.035-1.74-0.573H783.011l-1.7 0.573-3.236 1.598-1.485 1.065-1.556 1.116-1.7 1.526-1.72 1.71-2.837 3.154-3.358 4.454-2.642 4.598-2.642 3.676-2.58 4.28-3.636 7.598-4.086 7.906-0.481 0.276h-0.676l-1.659-1.239-0.962-2.079-1.598-2.58-2.785-7.68-4.198-10.926-5.376-13.148-4.045-6.554-4.24-6.84-5.038-7.69-5.345-7.527-2.734-3.41-3.318-3.717-7.629-7.496 0.666-0.675 1.034-1.076 3.81-2.232 15.872-7.629 6.922-3.901 6.605-3.789 6.533-4.772 5.826-4.915 2.816-2.222 2.12-2.56 2.181-2.97 1.802-3.215 0.973-2.673 1.188-3.205 0.512-2.775 0.563-3.236-0.563-2.17v-2.202l-0.512-2.273-1.188-2.08-0.45-1.627-1.086-1.977-2.877-3.922-2.663-3.143-2.058-2.355-1.72-1.741-4.383-3.195-4.956-2.785-5.284-2.663-5.663-2.56-6.318-2.478-3.4-1.034-2.98-0.84-7.341-1.71-7.578-1.628-7.619-1.618-8.284-1.352-8.54-0.358-8.755-1.055h-27.177l-9.8 0.574-9.124 0.84-9.84 1.351-9.759 1.044-10.28 1.434-9.964 2.478-9.718 1.874-9.657 2.765-9.902 3.543-9.717 2.929-5.12 1.71-4.547 1.618-2.877 1.116-2.857 0.604h-8.08l-9.339 0.655-4.72 0.482-6.083 0.675-3.901-3.532-5.325-3.328-7.22-3.513-7.986-4.382-4.854-2.376-5.069-1.884-11.192-4.578-6.083-1.525-6.38-1.72-8.847-1.721-5.54-0.43-5.857-0.502-6.113-0.676-7.117-0.266H375.84l-16.415 0.266-15.944 1.608-8.069 1.147-7.792 1.157-7.588 1.137-7.588 1.525-7.076 2.284-7.035 1.628-6.349 2.55-6 2.376-5.602 2.672-4.864 2.919-4.823 3.553-1.648 1.72-2.16 2.079-1.64 1.812-1.474 2.09-1.362 2.078-1.054 2.1-1.526 4.454-0.533 2.304-0.676 2.56v2.365l0.676 2.673v2.652l0.533 2.652v5.356l0.256 2.826 1.27 3.236 1.054 3.235 1.915 3.902 1.403 1.505 1.157 1.741 3.02 3.697 2.407 1.904 2.274 1.331 2.099 1.69 3.318 1.055 2.662 1.618 3.318 1.71 3.778 1.136 3.8 1.158 4.403 0.962 4.167 0.553 4.946 0.645 5.366 0.41 1.393 0.46h0.307l0.676 0.574v0.655l-0.983 1.332-2.847 1.351-7.117 6.165-4.782 3.809-5.53 4.844-5.57 5.417-5.796 6.922-6.677 7.803-2.488 4.219-3.297 4.362-2.847 5.038-2.56 5.509-3.45 5.243-2.254 5.98-2.682 5.97-2.683 6.656-1.946 6.38-1.853 7.884-0.553 0.287h-0.564l-0.286 0.563h-0.686l-1.127-0.563-0.563-0.287-0.778-1.32-0.277-1.608-0.583-1.434-1.014-2.386-3.256-5.796-1.69-3.512-2.683-3.062-2.847-3.686-3.143-4.086-3.318-3.625-3.901-3.512-3.605-3.298-3.994-2.621-4.362-2.734-4.198-1.628-4.946-1.24-4.854-0.47h-1.147l-1.116 0.47-0.88 1.926-1.424 0.942-1.864 4.567-1.167 2.468-1.25 3.543-1.033 3.676-0.553 3.625-1.536 8.253-0.584 4.864V260.28l0.584 11.91 0.962 6.082 1.127 6.267 1.034 6.748 1.833 6.277 2.058 7.23 2.12 7.045 2.836 7.25 2.673 6.912 3.696 7.014 3.43 7.608 4.2 7.138 4.935 7.7 5.017 6.922 5.243 7.7 4.373 5.367 5.601 6.144 5.898 6.195 2.745 2.949 3.328 3.318 4.833 4.188 4.966 4.27 8.08 7.24 6.093 4.454z"  horiz-adv-x="1024" />

    
    <glyph glyph-name="top" unicode="&#58930;" d="M787.596875 345.91875000000005l-252.590625 254.25c-5.596875 5.625-12.909375 8.325-20.19375 8.26875-0.984375 0.084375-1.828125 0.5625-2.8125 0.5625-4.10625 0-7.93125-0.95625-11.446875-2.53125-3.54375-1.35-6.91875-3.403125-9.7875-6.271875l-227.925-227.53125c-10.996875-10.96875-11.025-28.771875-0.028125-39.76875 5.484375-5.5125 12.684375-8.26875 19.9125-8.26875 7.2 0 14.371875 2.75625 19.884375 8.2125L483.875 513.825V18.375c0-15.553125 12.6-28.125 28.125-28.125s28.125 12.571875 28.125 28.125V515.203125l207.590625-208.940625c5.484375-5.5125 12.740625-8.296875 19.940625-8.296875s14.34375 2.728125 19.828125 8.184375c11.053125 10.940625 11.08125 28.771875 0.1125 39.76875zM821.375 665.25H202.625c-15.525 0-28.125 12.6-28.125 28.125s12.6 28.125 28.125 28.125h618.75c15.553125 0 28.125-12.6 28.125-28.125s-12.571875-28.125-28.125-28.125z"  horiz-adv-x="1024" />

    
    <glyph glyph-name="xiao" unicode="&#58997;" d="M512-52.907c-240.299 0-436.907 196.608-436.907 436.907s196.608 436.907 436.907 436.907 436.907-196.608 436.907-436.907-196.608-436.907-436.907-436.907zM512 755.371c-203.89 0-371.371-167.481-371.371-371.371s167.481-371.371 371.371-371.371 371.371 167.481 371.371 371.371-167.481 371.371-371.371 371.371zM380.928 420.409c0-21.845-21.845-36.409-36.409-36.409-21.845 0-36.409 14.563-36.409 36.409v65.536c0 21.845 14.563 36.409 36.409 36.409s36.409-14.563 36.409-36.409v-65.536zM715.89 420.409c0-21.845-14.563-36.409-36.409-36.409s-36.409 14.563-36.409 36.409v65.536c0 21.845 14.563 36.409 36.409 36.409s36.409-14.563 36.409-36.409v-65.536zM657.635 311.182c7.282 0 14.563 0 21.845-7.282 14.563-14.563 14.563-36.409 0-50.973-43.691-50.973-109.227-72.818-174.763-72.818-65.536 0-131.072 29.127-174.763 72.818-14.563 14.563-14.563 36.409 0 50.973 21.845 7.282 43.691 7.282 58.254-7.282 65.536-72.818 182.045-65.536 247.581 0 7.282 7.282 14.563 14.563 21.845 14.563z"  horiz-adv-x="1024" />

    
    <glyph glyph-name="ku1" unicode="&#58998;" d="M512-52.907c-240.299 0-436.907 196.608-436.907 436.907s196.608 436.907 436.907 436.907 436.907-196.608 436.907-436.907-196.608-436.907-436.907-436.907zM512 755.371c-203.89 0-371.371-167.481-371.371-371.371s167.481-371.371 371.371-371.371 371.371 167.481 371.371 371.371-167.481 371.371-371.371 371.371zM380.928 420.409c0-21.845-21.845-36.409-36.409-36.409-21.845 0-36.409 14.563-36.409 36.409v65.536c0 21.845 14.563 36.409 36.409 36.409s36.409-14.563 36.409-36.409v-65.536zM715.89 420.409c0-21.845-14.563-36.409-36.409-36.409s-36.409 14.563-36.409 36.409v65.536c0 21.845 14.563 36.409 36.409 36.409s36.409-14.563 36.409-36.409v-65.536zM366.365 180.11c-7.282 0-14.563 0-21.845 7.282-14.563 14.563-14.563 36.409 0 50.973 36.409 43.691 101.945 72.818 167.481 72.818 65.536 0 131.072-29.127 174.763-72.818 14.563-14.563 14.563-36.409 0-50.973-14.563-14.563-36.409-14.563-50.973 0-65.536 72.818-182.045 65.536-247.581 0-7.282-7.282-14.563-7.282-21.845-7.282z"  horiz-adv-x="1024" />

    
    <glyph glyph-name="vip" unicode="&#59066;" d="M718.71875 46.5H305.28125c-40.78125 0-74.53125 28.125-82.96875 67.5L118.25 631.5c-2.8125 11.25 2.8125 23.90625 14.0625 29.53125 9.84375 5.625 23.90625 4.21875 32.34375-2.8125l174.375-149.0625L489.5 710.25c11.25 14.0625 33.75 14.0625 45 0l150.46875-201.09375 174.375 149.0625c8.4375 8.4375 22.5 8.4375 32.34375 2.8125 9.84375-5.625 15.46875-18.28125 14.0625-29.53125l-104.0625-517.5c-8.4375-39.375-42.1875-67.5-82.96875-67.5zM189.96875 562.59375l87.1875-437.34375c2.8125-12.65625 14.0625-22.5 28.125-22.5h413.4375c14.0625 0 25.3125 9.84375 28.125 22.5l87.1875 437.34375-135-115.3125c-5.625-5.625-14.0625-7.03125-21.09375-7.03125-7.03125 1.40625-15.46875 4.21875-19.6875 11.25L512 646.96875 365.75 451.5c-4.21875-5.625-11.25-9.84375-19.6875-11.25-7.03125-1.40625-15.46875 1.40625-21.09375 7.03125l-135 115.3125zM512 187.125c-9.84375 0-19.6875 5.625-23.90625 14.0625l-84.375 140.625c-8.4375 12.65625-4.21875 30.9375 9.84375 37.96875 12.65625 8.4375 30.9375 4.21875 37.96875-9.84375l60.46875-99.84375 60.46875 99.84375c8.4375 12.65625 25.3125 18.28125 37.96875 9.84375 12.65625-8.4375 18.28125-25.3125 9.84375-37.96875l-84.375-140.625c-4.21875-8.4375-14.0625-14.0625-23.90625-14.0625z"  horiz-adv-x="1024" />

    
    <glyph glyph-name="weixin" unicode="&#58969;" d="M593.13584375 388.24289583c-14.01975 0-28.0479375-13.0005-28.0479375-29.0401875 0-12.99796875 14.0281875-26.071875 28.0479375-26.071875 21.0616875 0 36.0905625 13.07390625 36.0905625 26.071875 0.0016875 16.0396875-15.028875 29.0401875-36.0905625 29.0401875M500.9654375 523.5348333300001c22.04803125 0 36.07115625 14.02059375 36.07115625 35.07384375 0 22.04803125-14.0214375 35.04853125-36.07115625 35.04853125-21.033 0-41.0821875-13.0005-41.0821875-35.04853125-0.00084375-21.05240625 20.0491875-35.07384375 41.0821875-35.07384375M395.76078125 231.95255208000003c-37.07690625 0-64.13090625 6.0091875-99.1996875 16.03884375l-101.192625-51.08653125 29.0739375 86.13590625C153.29065625 333.13083333 111.21875 396.29648958 111.21875 473.43633333c0 136.25971875 128.239875 240.47465625 284.54203125 240.47465625 138.277125 0 261.51525-82.16859375 285.55453125-198.39684375-10.01025 2.0115-19.0231875 2.99953125-27.04303125 2.99953125-136.27321875 0-241.46521875-102.21946875-241.46521875-225.43734375 0-21.06 3.0054375-40.06209375 8.00803125-60.12984375-8.00803125-0.9939375-17.03446875-0.9939375-25.0543125-0.9939375m417.82753125-98.2125l20.02303125-72.140625-76.14675 43.10128125c-29.0570625-6.00159375-57.10753125-15.0508125-86.15953125-15.0508125-134.26846875 0-240.48225 92.21175-240.48225 206.4555 0 114.1779375 106.21209375 206.3694375 240.48225 206.3694375C798.5493125 502.47483333 912.78125 410.28333333 912.78125 296.10539583c0-64.15284375-43.0801875-121.24096875-99.1929375-162.36534375M302.591375 593.65720833c-21.04059375 0-43.0869375-13.0005-43.0869375-35.04853125 0-21.05240625 22.0471875-35.07384375 43.0869375-35.07384375 20.02978125 0 36.0703125 14.02059375 36.0703125 35.07384375 0 22.04803125-16.0464375 35.04853125-36.0703125 35.04853125m447.86334375-205.4143125c-15.03646875 0-28.05046875-13.0005-28.05046875-29.0401875 0-12.99796875 13.014-26.071875 28.05046875-26.071875 20.0458125 0 35.08228125 13.07390625 35.08228125 26.071875 0 16.0396875-15.03646875 29.0401875-35.08228125 29.0401875m0 0"  horiz-adv-x="1024" />

    
    <glyph glyph-name="suo" unicode="&#58893;" d="M775.5 472.4h-47.9V573c0 125.8-95.8 226.4-215.5 226.4S296.6 698.8 296.6 573v-100.6h-47.9c-26.3 0-47.9-22.6-47.9-50.3v-402.4c0-27.6 21.6-50.3 47.9-50.3h526.7c26.3 0 47.9 22.6 47.9 50.3V422.1c0.1 27.7-21.5 50.3-47.8 50.3zM560 183.1v-50.3c0-20.1-16.8-37.7-35.9-37.7-19.2 0-35.9 17.6-35.9 37.7v50.3c-14.4 12.6-23.9 30.2-23.9 50.3 0 35.2 26.3 62.9 59.9 62.9 33.5 0 59.9-27.7 59.9-62.9-0.2-20.1-9.7-37.7-24.1-50.3z m95.8 289.3H368.4V573c0 83 64.6 150.9 143.7 150.9 79 0 143.7-67.9 143.7-150.9v-100.6z"  horiz-adv-x="1024" />

    
    <glyph glyph-name="pay-zhifubao" unicode="&#58943;" d="M896 245.33333300000004l-247.04 83.072s18.986667 28.416 39.253333 84.138667c20.266667 55.722667 23.168 86.314667 23.168 86.314667l-159.914666 1.322666v54.613334l193.664 1.365333V594.773333h-193.706667V682.666667h-94.848v-87.893334H275.882667v-38.613333l180.693333 1.28v-58.581333H311.637333v-30.592h298.325334s-3.285333-24.832-14.72-55.722667c-11.434667-30.890667-23.210667-57.941333-23.210667-57.941333s-140.074667 49.024-213.888 49.024-163.584-29.653333-172.288-115.712c-8.661333-86.016 41.813333-132.608 112.938667-149.76 71.125333-17.237333 136.789333 0.170667 193.962666 28.16 57.173333 27.946667 113.28 91.477333 113.28 91.477333l287.914667-139.818667A142.08 142.08 0 0 0 753.792 0H270.208A142.08 142.08 0 0 0 128 142.20799999999997V625.7919999999999A142.08 142.08 0 0 0 270.208 768h483.584A142.08 142.08 0 0 0 896 625.7919999999999v-380.458667z m-359.68 48s-88.789333-108.117333-193.408-108.117333c-104.661333 0-126.634667 51.370667-126.634667 88.32 0 36.906667 21.76 77.056 110.805334 82.858667 89.002667 5.802667 209.28-63.061333 209.28-63.061334z"  horiz-adv-x="1024" />

    
    <glyph glyph-name="jian" unicode="&#59202;" d="M170.666667 426.666667h682.666666v-85.333334H170.666667z"  horiz-adv-x="1024" />

    
    <glyph glyph-name="message1" unicode="&#58903;" d="M899.24609375 491.29492189c0 16.43554688-13.53515625 29.79492188-30.234375 29.79492186-16.08398438 0-29.53125001-12.48046875-30.41015625-28.125l0.08789063-351.03515625-654.609375-0.26367188V622.9550781400001h652.06054687L517.44921875 350.93359375c-0.26367188-0.17578125-0.52734375-0.43945313-0.703125-0.61523438L296.40429687 551.0605468900001c-12.21679689 11.16210938-31.2890625 10.45898438-42.62695312-1.58203127-11.33789063-12.04101563-10.63476563-30.84960938 1.58203125-42.09960937l54.58007813-50.2734375 0.26367187 0.26367189 165.32226563-150.64453127c11.07421875-10.72265625 25.75195313-16.61132813 41.30859374-16.61132812h0.08789063c15.38085938 0 29.8828125 5.80078125 40.86914063 16.34765625l322.38281249 275.18554689c0.61523438 0.52734375 1.14257813 0.96679687 1.66992189 1.58203123 16.78710938 16.69921875 21.796875 41.57226563 12.74414062 63.36914063-9.05273438 21.796875-30.41015625 35.94726563-54.22851563 36.12304689H183.2890625c-15.8203125 0.08789063-30.67382813-5.9765625-41.92382813-16.96289064-11.25-11.07421875-17.49023438-25.75195313-17.49023437-41.39648438v-483.92578123c0-15.55664063 6.15234375-30.234375 17.31445312-41.22070314s26.015625-17.05078125 41.8359375-17.05078125l657.24609375 0.26367187c32.51953125 0 59.0625 26.10351563 59.0625 58.27148438-0.17578125-0.08789063-0.08789063 349.453125-0.08789062 350.59570314z"  horiz-adv-x="1024" />

    
    <glyph glyph-name="shiyan" unicode="&#58905;" d="M830.29563639 758.25986441c6.07552373-6.65642584 10.63313176-13.99262996 13.65583035-22.01479294 3.06904716-8.0051685 4.5807823-16.60282625 4.56919593-25.8107402 0.05793572-17.46336474-6.02299537-33.42040088-18.21884647-47.83171216-14.42212672-13.25414271-29.8623763-19.84027323-46.30838988-19.73598893-6.32503356-0.01158714-12.66088099 1.51173514-18.97432741 4.55220068-11.04563404 2.99952429-20.65446235 8.05151707-28.85197742 15.18378825-14.2769012 14.45225329-21.36282303 30.3977023-21.25853874 47.83171216 0 9.10362966 1.02353096 17.7012874 3.04046476 25.8107402a93.18609473 93.18609473 0 0 0 18.21884646 22.01556541C748.47420838 772.46106293 764.41425006 779.55393706 783.99960613 779.50758848l13.6604652-1.51173514c13.48125071-4.0346424 24.36389228-10.61459233 32.63556506-19.73598893zM643.56270134 607.9584409a20.98585464 20.98585464 0 0 1-4.56919592-12.90034862c0.05793572-3.76041335 0.56390762-7.05656774 1.52950287-9.87069851 1.05134011-1.15639687 2.05710334-3.17333144 3.03969305-6.0801586 4.81947743-2.9184143 9.62118794-4.43014943 14.41131128-4.55220068 5.79511488 0.13363838 10.59759785 1.64537352 14.42212672 4.55220068 3.94194525 4.86582603 5.95887983 10.17350842 6.07475127 15.9516296-0.11587143 4.76076925-2.132806 9.06268842-6.07475127 12.89957613a24.80497618 24.80497618 0 0 1-6.06316411 4.55142821 25.69486876 25.69486876 0 0 1-8.35896261 1.52950287h-6.06393582c-3.72565192-1.1162281-6.49884069-3.14552229-8.34737546-6.08093108z m-16.71329036 16.68934359c8.24309118 9.16156538 18.62594064 13.71376605 31.12460164 13.66741748 8.35896261 0.02858162 16.70711055-1.9999401 25.054486-6.07475126 3.09840125-2.03470152 5.63366736-4.56919516 7.59266699-7.59266622l4.55142821-3.02810592c5.26056135-8.49337346 7.79582746-17.84728463 7.59189373-28.09572401 0.07570267-12.45231242-3.97593421-22.82898284-12.14332194-31.11842182-8.25467831-10.19668269-19.13731988-15.25408282-32.64715299-15.17838092-12.41137117-0.0293541-22.77104714 5.02263868-31.12460164 15.1791534-3.03428573 0.97563743-5.06898725 2.49355238-6.06316411 4.5514282-5.09834136 7.27749593-7.63206251 16.12543596-7.59189374 26.56622114v13.67282482c3.02810591 6.51042784 7.59189374 12.33566852 13.65505785 17.45100511z m133.59972031 107.80133972c-5.91716611-5.85382308-8.95763166-12.67864794-9.10285718-20.50305702 0.08728981-7.79582746 3.1161682-15.13821138 9.10362966-22.0032058 6.8070587-5.91793859 13.63806338-8.94140965 20.50923683-9.1152168h3.03428572c7.78964765 0.12205124 14.62606043 3.15633697 20.49147066 9.1152168 4.92376173 6.79006422 7.45825536 14.13167567 7.5926662 22.0032058-0.145998 7.81282193-2.68049163 14.63146777-7.5926662 20.50305702l-9.10362967 4.55142898c-4.84805906 2.99411696-8.64400632 4.52284658-11.38784099 4.55220067-8.81858594-0.10505677-16.66694178-3.13934249-23.54352255-9.10362965z m16.71406282-240.63939926l-15.18456073-11.3886127v-407.63093882c-18.13155588-56.1443262-50.52301847-84.24005021-97.16820796-84.2570447h-2.27339668c-46.92482588 2.96476287-81.08294077 30.79243764-102.47666362 83.50156298V478.91555615l-16.70633728 16.69552338v29.60745915l10.63235927 8.34737548H761.21620016l15.94622147-13.65505786v-28.10113136z m-183.71641706-32.62938527v-386.38475892c13.13209147-29.81602773 37.18158594-47.78459111 72.11295027-53.89410381 28.8627921 4.15051306 50.36620657 22.11907722 64.52182824 53.89487628V459.17956721h-136.63555098z m17.46877208-132.08952932H711.10568321l0.77324867-0.75548173v-238.36059448c-7.1909786-28.92690763-24.65357085-43.34980683-52.37696134-43.26251778-21.63164475 1.90029067-38.07147852 16.07368006-49.34267561 42.50626359V326.33532863000005l0.75548173 0.75548173zM322.45602406 641.3556675h192.8138669l0.75548173-0.75625418v-57.70241069l-0.75548173-0.75548173h-8.34814793v-179.90270285l36.426105-66.04978537v-88.8038388l-0.75548173-0.75548173L468.97308822 392.36812031V565.45140484H364.20680593v-172.32780282L210.8811389 81.14372868999999c-3.55725211-12.71958919-2.80177039-23.10166695 2.26721764-31.12382992 5.60431326-9.32455785 16.73646463-15.63800349 33.40340563-18.97432741H563.85631239l41.75078185-40.99530014-0.7724762-1.51173514H243.51129664c-49.13333457 16.34095682-71.65487187 46.95417998-67.5615213 91.84353108 0 6.03458249 0.51755905 12.61453242 1.52873039 19.73676141l154.85903153 302.12616929V582.1415208999999h-9.87687834l-0.75548094 0.75548172v57.7024107l0.74930114 0.75625419z m170.04359224-388.66279123l52.37696134-98.67994389v-85.77418716l-239.1160762-0.75625419h-3.04046553c-22.93326713 5.1161083-32.79237773 19.03844293-29.60668668 41.75078187 1.00576401 4.09257734 1.51096267 7.63901479 1.51096266 10.61536479l66.80604034 132.84423858h151.06926408z"  horiz-adv-x="1024" />

    
    <glyph glyph-name="wenzhang" unicode="&#59005;" d="M661.648 778H249.104c-39.088 0-70.304-31.752-70.304-70.304v-647.392c0-39.096 31.752-70.304 70.304-70.304h525.8c38.552 0 70.296 31.752 70.296 70.304V594.44L661.648 778z m12.664-74.704l96.176-96.184H684.584c-5.408 0-10.272 4.864-10.272 10.272V703.296z m126.928-642.992a26.24 26.24 0 0 0-26.344-26.352H249.104a26.24 26.24 0 0 0-26.344 26.352V707.696a26.24 26.24 0 0 0 26.344 26.344v0.464h381.328v-117.192c0-29.824 24.416-54.16 54.16-54.16h116.656v-502.848zM348.68 509.928h188.968a21.84 21.84 0 0 1 21.944 21.936 21.84 21.84 0 0 1-21.944 21.944H348.68a21.832 21.832 0 0 1-21.944-21.944 21.84 21.84 0 0 1 21.944-21.936zM674.848 251.2H348.68c-12.208 0-21.944-9.744-21.944-21.944s9.736-21.944 21.944-21.944h326.168c12.208 0 21.944 9.744 21.944 21.944S687.064 251.2 674.848 251.2zM348.68 400.144a21.824 21.824 0 0 1-21.944-21.944 21.832 21.832 0 0 1 21.944-21.936h326.168a21.832 21.832 0 0 1 21.944 21.936 21.832 21.832 0 0 1-21.944 21.944H348.68z"  horiz-adv-x="1024" />

    
    <glyph glyph-name="houtai" unicode="&#59787;" d="M881.140625 753.140625H142.859375C113.77307127 753.140625 90.125 729.4925537199999 90.125 700.40625001v-527.34375001c0-29.08630372 23.64807129-52.734375 52.734375-52.734375h263.67187501v-52.73437501h-79.10156251c-14.58435059 0-26.3671875-11.78283692-26.3671875-26.36718749s11.78283692-26.3671875 26.3671875-26.3671875h369.140625c14.58435059 0 26.3671875 11.78283692 26.3671875 26.3671875s-11.78283692 26.3671875-26.3671875 26.36718749h-79.10156249v52.73437501h263.67187499c29.08630372 0 52.734375 23.64807129 52.734375 52.734375V700.40625001c0 29.08630372-23.64807129 52.734375-52.734375 52.73437499zM564.734375 67.59374998999999H459.265625v52.73437501h105.46875v-52.73437499z m316.40625 105.46875001H142.859375V700.40625001h738.28125v-527.34375001zM749.22229004 418.52453614l-51.9104004-0.08239747c-5.2734375 11.20605469-11.37084961 21.83532715-18.62182617 31.97021486l25.87280274 45.07141112c7.25097655 12.68920898 2.88391114 28.75671387-9.72290039 36.00769043L591.92553711 590.48803711c-12.68920898 7.25097655-28.75671387 2.88391114-36.00769043-9.7229004L530.04504395 535.61132813c-12.35961914 1.15356445-24.71923828 1.071167-36.99645997-0.08239747l-26.11999512 44.90661621c-7.33337403 12.52441406-23.48327637 16.8914795-36.00769042 9.55810547l-102.58483887-59.57336425c-12.52441406-7.33337403-16.8914795-23.48327637-9.55810546-36.00769043l26.03759766-44.82421875c-3.62548828-5.10864258-7.00378418-10.29968262-10.05249024-15.65551758-3.04870606-5.35583497-5.85021973-10.79406739-8.40454102-16.56188966l-51.82800293-0.16479491c-14.58435059 0-26.28479004-11.86523438-26.28479005-26.44958496l0.16479494-58.66699219h-0.16479493v-52.734375h527.67333985v52.734375l-0.24719239 60.15014648c0 14.50195313-11.86523438 26.28479004-26.44958496 26.28479005zM459.34802246 332.17199707c0 8.40454102 1.97753906 16.97387695 6.26220703 24.8840332 13.76037598 25.62561036 45.73059083 35.34851075 71.35620118 21.58813476 17.71545411-9.47570801 27.76794434-27.68554688 27.8503418-46.47216796h-105.46875z m158.20312501 0c0 37.57324219-20.18737793 73.99291993-55.70068361 92.94433594-51.33361817 27.52075195-115.27404786 8.15734864-142.7947998-43.17626953-8.48693847-15.90270997-12.52441406-32.95898438-12.52441407-49.7680664H301.0625l-0.08239747 32.38220214 43.34106446 0.16479492c11.12365723 0.08239747 21.09375001 7.08618164 24.80163574 17.55065919 3.3782959 9.31091309 7.08618164 17.63305664 11.45324707 25.2960205 4.36706543 7.66296387 9.64050293 15.07873536 16.06750489 22.65930176 7.16857911 8.48693847 8.23974609 20.59936523 2.63671875 30.32226563L377.69213867 498.1204834l57.01904297 33.12377929 21.75292969-37.49084472c5.60302734-9.64050293 16.72668458-14.74914551 27.68554687-12.68920899 18.20983887 3.46069337 36.74926758 3.46069337 55.2886963 0.08239747 11.04125977-1.97753906 22.00012208 3.13110352 27.60314941 12.8540039l21.58813476 37.57324219 57.18383788-32.79418945-21.58813475-37.57324219c-5.60302734-9.72290039-4.36706543-21.83532715 2.88391113-30.32226563 12.27722169-14.25476075 21.58813477-30.32226563 27.76794434-47.79052734 3.7902832-10.546875 13.76037598-17.55065918 24.8840332-17.55065918l43.34106445 0.16479492 0.08239747-33.5357666H617.55114747z"  horiz-adv-x="1024" />

    
    <glyph glyph-name="laba" unicode="&#59046;" d="M128 500.499h171.001L512.002 713.5v-683.001l-213.001 214H128v256z m469.001 246c42.656-10 82.329-26.5 119.001-49.5 36.656-23.001 68.329-50.844 95.001-83.5 26.656-33.344 47.5-70.5 62.5-111.5s22.5-84.172 22.5-129.5c0-46-7.5-89.5-22.5-130.5s-35.844-77.844-62.5-110.5c-26.672-33.344-58.343-61.5-95.001-84.5-36.672-23.001-76.343-39.5-119.001-49.5v88c31.328 9.328 60 23.156 86 41.5 26 18.329 48.329 40.156 67.001 65.5 19.328 24.656 34.329 52.329 45.001 83.001 10.656 30.656 16 63.001 16 97.001 0 33.328-5.344 65.328-16 96-10.672 30.656-25.671 58.656-45.001 84-18.672 24.656-41.001 46.156-67.001 64.5-26 18.329-54.672 32.156-86 41.5V746.5z m106.999-374c0-19.344-2.672-37.671-8-55.001-5.344-17.344-12.672-33.344-22-48a189.57 189.57 0 0 0-33.5-39.5c-13.001-11.671-27.5-21.5-43.5-29.5v344c16-8 30.5-18 43.5-30s24.156-25.344 33.5-40c9.328-14.672 16.656-30.672 22-48 5.328-17.343 8-35.343 8-54z"  horiz-adv-x="1024" />

    
    <glyph glyph-name="tang" unicode="&#59116;" d="M509.31178284 221.77999878000003l118.28155518 276.00574494A161.7565155 161.7565155 0 0 1 514.68821716 546.22000122l-118.28155518-276.00574494A161.7565155 161.7565155 0 0 1 509.31178284 221.77999878000003z m25.95520019 1.66854859a162.22000122 162.22000122 0 0 1 109.01184082 254.45365906l-109.01184082-254.45365906z m-155.54580688 66.64924621l109.01184082 254.45365905a162.22000122 162.22000122 0 0 1-109.01184082-254.45365905zM419.30285644 570.8774414100001V708.44000244H280.25714112V754.78857422h185.3942871v-167.41104126A208.568573 208.568573 0 0 0 715.37753296 337.65142822999996H882.78857422v-46.34857179h-183.91113281A209.49554443 209.49554443 0 0 0 604.69714356 197.12255859000004V59.559997560000056h139.04571532v-46.34857178H558.34857177v167.41104126A208.568573 208.568573 0 0 0 308.62246704 430.34857177H141.21142578V476.69714356h183.91113281A209.49554443 209.49554443 0 0 0 419.30285644 570.8774414100001zM303.431427 569.39428711H187.55999756V615.7428588800001h92.69714356V708.44000244h46.34857177v-139.04571533h-23.17428589z m417.137146-370.78857422H836.44000244v-46.34857177h-92.69714356v-92.69714356h-46.34857177v139.04571533h23.17428589z m115.87142944 92.69714356h46.34857178v-139.04571533h-46.34857178v139.04571532zM187.55999756 476.69714356H141.21142578V615.7428588800001h46.34857178v-139.04571532z"  horiz-adv-x="1024" />

    
    <glyph glyph-name="cai" unicode="&#58999;" d="M214.41568461 182.05416405000005l197.39194586 0C335.34572897-100.35430438000003 464.51257791-114.78857419999997 464.51257791-114.78857419999997c54.7442846 0 43.40874777 43.27632338 47.54039198 50.50670059 0 138.11874391 146.7263356 246.30955308 146.7263356 246.30955307l1e-8 391.71164407c0 38.66795152-52.70494745 52.57252305-73.3631678 52.57252233l-296.57788947 1e-8c-27.91508287 0-50.63912498-73.17777351-50.6391257-73.17777352-73.38965311-249.43477065-73.38965311-323.6454554-73.38965239-323.64545538 0-51.56609641 49.60621446-47.43445291 49.60621447-47.43445291zM739.77012437 182.18658916000004L857.99870964 182.18658916000004c24.41907599 0 24.78986457 23.96883293 24.78986458 23.96883222l-24.41907599 394.99577134c0 25.16065315-25.16065315 25.16065315-25.16065316 25.16065314l-102.33764648 0c-21.29385843 0-21.10846414-16.63251594-21.10846414-16.63251594l-1e-8-397.53832146c0-30.35169319 30.03387451-29.95442002 30.03387451-29.9544193z"  horiz-adv-x="1024" />

    
    <glyph glyph-name="zan" unicode="&#58897;" d="M819.24026911 563.88237005L623.21226995 563.88237005c75.95856244 280.53386032-52.33607886 294.86198941-52.33607886 294.86198942-54.37657041 0-43.10411902-42.99703528-47.21629943-50.16489423 0-137.19354565-145.71976464-244.69709519-145.71976465-244.69709519l0-389.05765603c0-38.4033999 52.33607886-52.23489725 72.86662739-52.23489725l294.53146353 0c27.71948722 0 50.29221479 72.69461938 50.29221478 72.69461938 72.86747112 247.77385346 72.86747112 321.49630701 72.86747113 321.49630701C868.49874677 567.97262781 819.24026911 563.88237005 819.24026911 563.88237005L819.24026911 563.88237005 819.24026911 563.88237005zM819.24026911 563.88237005M297.49585587 563.75336364L180.11531445 563.75336364c-24.24137668 0-24.61490497-23.80966919-24.61490496-23.80966919l24.24137667-392.37893618c0-24.97409857 25.01710098-24.97409857 25.01710099-24.97409858L306.35260074 122.59065969000005c21.16461923 0 20.97743363 16.52039264 20.97743362 16.52039264L327.33003436 533.99844409C327.33003436 564.1344807400001 297.49585587 563.75336364 297.49585587 563.75336364L297.49585587 563.75336364 297.49585587 563.75336364zM297.49585587 563.75336364"  horiz-adv-x="1024" />

    
    <glyph glyph-name="xingzhuangcopy" unicode="&#58885;" d="M785.19736838 567.5748802200001H178.23026324c-35.25986838 0-63.90296027-26.8667765-63.90296027-59.9506573v-359.83717136c0-33.17269703 28.64309189-59.95065811 63.94736838-59.95065809h63.85855215v-150.05427568l159.73519787 150.0098684h383.32894701c35.30427649 0 63.90296027 26.82236838 63.90296026 59.95065728V507.66863022c0 33.08388162-28.5986846 59.95065811-63.90296026 59.95065812z m11.41282865-407.97532866H371.40460513l-19.40625-17.36348674-52.57894702-46.98355296V159.59955158000002H166.8174346V515.08474943H796.65460513v-355.48519785zM324.28782864 252.67849941999998a52.49013162 52.49013162 0 1 1-0.04440729 105.02467052 52.49013162 52.49013162 0 0 1 0-105.02467052z m157.42598676 0a52.49013162 52.49013162 0 1 1 0 105.02467052 52.49013162 52.49013162 0 0 1 0-105.02467052z m157.47039487 0a52.49013162 52.49013162 0 1 1-1e-8 104.98026244 52.49013162 52.49013162 0 0 1 0-104.98026244zM942.66776324 725.04527509H335.70065811c-35.25986838 0-63.94736838-26.46710513-63.94736838-59.06250001v-59.0625h63.94736838v59.0625h606.96710514v-354.24177567h-63.94736838v-59.06249999h63.94736838c35.30427649 0 63.85855298 26.42269702 63.85855215 59.06249999V665.98277509c0 32.59539487-28.55427649 59.0625-63.85855215 59.0625z"  horiz-adv-x="1131" />

    
    <glyph glyph-name="arrow" unicode="&#58890;" d="M304.873472 539.34459259l-103.56265718-103.56265718 309.75711763-310.68918519 311.62125273 310.68918519-103.56265718 103.56265718-207.126528-207.126528z"  horiz-adv-x="1024" />

    
    <glyph glyph-name="eye-close" unicode="&#58881;" d="M914.8221875 496.771875c8.754375 13.130625 5.8359375 30.6384375-5.83593751 40.8515625-13.130625 10.213125-30.6384375 7.2946875-40.85156249-5.8359375-1.4596875-1.45875001-163.40625001-192.586875-355.995-192.586875-186.75 0-355.9940625 192.586875-357.4528125 194.04562499-10.2140625 11.671875-29.1796875 13.130625-40.8525 2.91843751-11.671875-10.213125-13.130625-29.1796875-2.9184375-40.8525 2.9184375-4.37624999 37.9340625-43.7690625 93.375-87.5390625l-74.409375-77.32687501c-11.671875-11.671875-10.2121875-30.6384375 1.45968749-40.85156249 2.9184375-5.8359375 10.213125-8.754375 17.50875001-8.754375 7.29375001 0 14.589375 2.9184375 20.4253125 8.754375l80.244375 83.161875c37.9340625-26.2621875 83.1628125-51.065625 132.76875-68.5725l-30.639375-103.5890625c-4.37624999-16.048125 4.378125-32.0971875 20.42625-36.474375h8.75343749c13.130625 0 24.8034375 8.754375 27.72093751 21.885l30.6384375 103.5890625c23.34375001-4.3771875 48.1471875-7.295625 72.9496875-7.295625s49.6059375 2.9184375 72.950625 7.295625l30.6375-102.1303125c2.919375-13.130625 16.05-21.8840625 27.721875-21.8840625 2.9184375 0 5.8359375 0 7.295625 1.45875 16.048125 4.378125 24.8025 20.4253125 20.42625 36.474375L640.5303125 305.64374998999995c49.606875 17.50874999 94.8346875 42.31125001 132.76875 68.57250002l78.785625-81.70312501c5.8359375-5.8359375 13.130625-8.754375 20.4253125-8.75437499 7.2946875 0 14.5903125 2.9184375 20.4253125 8.75343749 11.671875 11.6728125 11.671875 29.1796875 1.4596875 40.8525l-74.409375 77.3259375c59.82 43.7709375 94.8375 86.08125001 94.8375 86.08125z"  horiz-adv-x="1024" />

    
    <glyph glyph-name="qiami" unicode="&#58992;" d="M891.6875 526.3828125V605.484375c0 26.3671875-21.09375001 47.4609375-47.4609375 47.4609375H179.7734375c-26.3671875 0-47.4609375-21.09375001-47.4609375-47.4609375v-79.1015625h759.375zM132.3125 494.7421875v-337.5c0-26.3671875 21.09375001-47.4609375 47.4609375-47.46093751h664.453125c26.3671875 0 47.4609375 21.09375001 47.4609375 47.46093751V494.7421875H132.3125z m232.03125001-237.3046875H185.046875v52.734375h179.29687499v-52.734375zM512 368.1796875H185.046875v52.734375H512v-52.734375z"  horiz-adv-x="1024" />

    
    <glyph glyph-name="gift" unicode="&#58910;" d="M442.181818 733.090909l-37.236363-65.163636L370.036364 733.090909 302.545455 770.327273l67.490909 34.909091L404.945455 872.727273 442.181818 805.236364l65.163637-34.909091zM1328.872727 32.581818l67.490909-37.236363-67.490909-34.909091-34.909091-67.490909-37.236363 67.490909-65.163637 34.909091 65.163637 37.236363 37.236363 65.163637zM93.090909 500.363636c-39.563636 0-69.818182-30.254545-69.818182-69.818181s30.254545-69.818182 69.818182-69.818182 69.818182 30.254545 69.818182 69.818182-30.254545 69.818182-69.818182 69.818181z m0-102.4c-18.618182 0-32.581818 13.963636-32.581818 32.581819s13.963636 32.581818 32.581818 32.581818 32.581818-13.963636 32.581818-32.581818c0-18.618182-13.963636-32.581818-32.581818-32.581819zM1419.636364 640c0 39.563636-30.254545 69.818182-69.818182 69.818182s-69.818182-30.254545-69.818182-69.818182 30.254545-69.818182 69.818182-69.818182 69.818182 30.254545 69.818182 69.818182z m-102.4 0c0 18.618182 13.963636 32.581818 32.581818 32.581818s32.581818-13.963636 32.581818-32.581818c0-18.618182-13.963636-32.581818-32.581818-32.581818-18.618182 0-32.581818 13.963636-32.581818 32.581818zM1175.272727 384l11.636364 4.654545v172.218182c0 41.890909-39.563636 76.8-90.763636 76.8H323.490909c-48.872727 0-90.763636-34.909091-90.763636-76.8v-172.218182l11.636363-4.654545c25.6-11.636364 41.890909-34.909091 41.890909-58.181818s-16.290909-46.545455-41.890909-58.181818l-11.636363-6.981819v-172.218181c0-41.890909 39.563636-76.8 90.763636-76.8h774.981818c48.872727 0 90.763636 34.909091 90.763637 76.8v172.218181l-13.963637 6.981819c-25.6 11.636364-41.890909 34.909091-41.890909 58.181818 0 25.6 16.290909 46.545455 41.890909 58.181818z m-30.254545 30.254545c-34.909091-18.618182-53.527273-53.527273-53.527273-88.436363s20.945455-67.490909 53.527273-88.436364v-148.945454c0-20.945455-20.945455-37.236364-44.218182-37.236364h-65.163636v18.618182h-23.272728v-18.618182h-628.363636v18.618182h-23.272727v-18.618182h-41.890909c-25.6 0-44.218182 16.290909-44.218182 37.236364v148.945454c32.581818 20.945455 53.527273 53.527273 53.527273 86.109091s-20.945455 67.490909-53.527273 86.109091v148.945455c0 20.945455 20.945455 37.236364 44.218182 37.236363h41.890909v-18.618182h23.272727v18.618182h628.363636v-18.618182h23.272728v18.618182h65.163636c25.6 0 44.218182-16.290909 44.218182-37.236363v-144.29091zM360.727273 418.909091h23.272727v-46.545455h-23.272727zM360.727273 558.545455h23.272727v-46.545455h-23.272727zM360.727273 349.090909h23.272727v-46.545454h-23.272727zM360.727273 488.727273h23.272727v-46.545455h-23.272727zM360.727273 279.27272700000003h23.272727v-46.545454h-23.272727zM360.727273 209.45454500000005h23.272727v-46.545454h-23.272727zM360.727273 139.63636399999996h23.272727v-46.545455h-23.272727zM1012.363636 418.909091h23.272728v-46.545455h-23.272728zM1012.363636 558.545455h23.272728v-46.545455h-23.272728zM1012.363636 349.090909h23.272728v-46.545454h-23.272728zM1012.363636 488.727273h23.272728v-46.545455h-23.272728zM1012.363636 279.27272700000003h23.272728v-46.545454h-23.272728zM1012.363636 209.45454500000005h23.272728v-46.545454h-23.272728zM1012.363636 139.63636399999996h23.272728v-46.545455h-23.272728zM702.836364 309.52727300000004h-162.909091v-20.945455h162.909091v-174.545454h20.945454v174.545454h153.6v20.945455h-153.6v111.709091h13.963637v20.945454c0 6.981818-4.654545 11.636364-11.636364 11.636364H698.181818c-6.981818 0-11.636364-4.654545-11.636363-11.636364v-20.945454h13.963636v-111.709091z m144.290909 111.709091h25.6c18.618182 0 34.909091-16.290909 34.909091-34.909091v-51.2c0-18.618182-13.963636-34.909091-30.254546-34.909091v-137.309091c0-25.6-18.618182-46.545455-41.890909-46.545455H593.454545c-27.927273 0-51.2 23.272727-51.2 53.527273v132.654546c-11.636364 4.654545-20.945455 18.618182-20.945454 32.581818v51.2c0 9.309091 2.327273 18.618182 9.309091 25.6 6.981818 6.981818 13.963636 11.636364 23.272727 11.636363h46.545455c-2.327273 2.327273-6.981818 4.654545-11.636364 6.981819-20.945455 13.963636-37.236364 18.618182-53.527273 13.963636-18.618182-4.654545-27.927273-23.272727-27.927272-23.272727 0-2.327273-2.327273-4.654545-4.654546-4.654546h-6.981818c-4.654545 2.327273-6.981818 6.981818-4.654546 11.636364 0 0 13.963636 25.6 39.563637 32.581818 20.945455 4.654545 44.218182 0 67.490909-16.290909 20.945455-13.963636 34.909091-20.945455 44.218182-23.272727h27.927272v20.945454c0 2.327273 0 6.981818 2.327273 9.309091-18.618182 32.581818-37.236364 51.2-53.527273 53.527273-13.963636 0-25.6-11.636364-32.581818-20.945455-2.327273-2.327273-4.654545-4.654545-6.981818-4.654545s-4.654545 0-6.981818 2.327273c-4.654545 2.327273-4.654545 9.309091-2.327273 13.963636 13.963636 20.945455 30.254545 30.254545 48.872727 30.254545 20.945455 0 44.218182-18.618182 65.163637-55.854545 4.654545 2.327273 11.636364 4.654545 16.290909 4.654545h27.927273c9.309091 0 18.618182-4.654545 23.272727-13.963636 9.309091 25.6 25.6 51.2 48.872727 58.181818 16.290909 4.654545 34.909091-2.327273 51.2-20.945454 13.963636-16.290909 16.290909-32.581818 13.963637-41.890909-2.327273-13.963636-9.309091-25.6-18.618182-34.909091z m-30.254546 0c9.309091 4.654545 27.927273 20.945455 30.254546 37.236363 2.327273 9.309091 0 16.290909-9.309091 25.6-11.636364 13.963636-23.272727 18.618182-32.581818 16.290909-23.272727-6.981818-39.563636-53.527273-46.545455-79.127272h58.181818z"  horiz-adv-x="1442" />

    
    <glyph glyph-name="tupian" unicode="&#59194;" d="M804.48745344 787.12731938H223.261685c-62.02962375 0-112.49524781-50.46562406-112.49524875-112.49524782v-581.22576937c0-62.02962375 50.46562406-112.49524781 112.49524875-112.49524782h581.22576844c62.02962375 0 112.49524781 50.46562406 112.49524875 112.49524782V674.63207156c0 62.03058281-50.46562406 112.49524781-112.49524875 112.49524782z m-581.22576844-56.24762344h581.22576844c31.01481187 0 56.24762438-25.2328125 56.24762437-56.24762438v-111.36417562c-131.26012594-6.79603219-253.64051156-61.06739625-347.15311031-154.58191313-41.92741313-41.92645406-75.93539625-89.67136312-101.34760594-141.40140937-38.21377125 29.07500719-84.6012 44.82464906-133.39276031 44.82464812-39.94060031 0-78.27045281-10.55860125-111.82658156-30.33367312V674.63207156c-0.00095906 31.01481187 25.2318525 56.24762438 56.24666531 56.24762438z m-56.24762438-637.47339375V211.98862406c30.55240594 28.32383625 70.00085906 43.87393313 111.82658157 43.87393313 41.20694156 0 80.12679375-15.066585 110.48541093-42.59799844-20.0110725-55.76986781-30.60612937-115.12578469-31.02536531-176.10492094H223.261685c-31.01481187-0.00095906-56.24762438 25.2318525-56.24762438 56.24666438z m637.47339282-56.24762344H414.54927125c0.96318656 125.4090525 50.15095781 243.09917906 138.80541 331.75459031 82.8878025 82.88588344 191.15519719 131.26684125 307.38135563 138.00435281v-413.51131968c-0.00095906-31.01481187-25.23377156-56.24762438-56.24858344-56.24762344zM337.94329063 461.50105406c58.79277844 0 106.62306938 47.83029094 106.62306937 106.62115125 0 58.79277844-47.83029094 106.62306938-106.62306938 106.62306938-58.79085938 0-106.62115125-47.83029094-106.62115125-106.62306938-0.00095906-58.79085938 47.83029094-106.62115125 106.62115126-106.62115125z m-1e-8 156.99755625c27.77796656 0 50.375445-22.59747938 50.37544501-50.37544594 0-27.7760475-22.59747938-50.37352688-50.37544501-50.37352687-27.7760475 0-50.37352688 22.59747938-50.37352687 50.37352687-0.00095906 27.7770075 22.59747938 50.375445 50.37352687 50.37544594z"  horiz-adv-x="1024" />

    
    <glyph glyph-name="zidingyi" unicode="&#58981;" d="M510.78637037 513.42601482l104.37214815-105.8285037-255.10494815-258.74583703-104.37214815 105.8285037L510.78637037 513.42601482z m102.43034074 104.00805927c12.74311111 12.86447408 34.58844445 11.65084445 48.66654814-2.6699852l53.15697778-53.88515555c14.0781037-14.44219259 15.29173333-36.53025185 2.54862222-49.39472592l-60.5601185-61.40965926-104.37214816 105.8285037 60.56011852 61.53102223zM182.13546667 252.85973334000005l37.25842963-37.74388148 144.90737778-146.84918519L759.58044445 469.00717037c33.37481482 33.98162963 30.34074075 92.23585185-6.9176889 129.97973334l-53.15697777 53.88515555c-37.25842963 37.74388148-94.78447408 40.89931852-128.15928889 7.03905186L176.06731852 259.04924444999995l-57.89013334-214.81244444c-2.54862222-9.34494815 0-19.41807408 6.79632593-26.2144 6.79632592-6.91768889 16.62672592-9.46631111 25.85031111-6.91768889L362.72355555 69.60165926000002l-43.32657777 44.05475556L181.77137778 75.54844445000003l37.50115555 139.56740741-37.13706666 37.74388148z m700.38565925-202.43342222H489.42648889c-9.34494815 0.36408889-18.08308148-4.36906667-22.81623704-12.50038519-4.73315555-8.13131852-4.73315555-18.20444445 0-26.33576296s13.59265185-12.86447408 22.81623704-12.50038518h393.216c13.47128889 0.60681482 24.15122963 11.89357037 24.15122963 25.60758518-0.12136297 13.83537778-10.67994075 25.12213333-24.2725926 25.72894815z m0 109.22666667h-292.48474074c-9.34494815 0.36408889-18.08308148-4.36906667-22.81623703-12.5003852s-4.73315555-18.20444445 0-26.33576295c4.73315555-8.13131852 13.59265185-12.86447408 22.81623703-12.50038519h292.48474074c13.47128889 0.60681482 24.15122963 11.89357037 24.15122963 25.60758519 0 13.83537778-10.55857778 25.12213333-24.15122963 25.72894815z m-227.0701037 83.01226666c0-14.19946667 11.28675555-25.60758518 25.2434963-25.60758519h201.8266074c13.47128889 0.60681482 24.15122963 11.89357037 24.15122963 25.60758519s-10.67994075 25.00077037-24.15122963 25.60758519H680.69451852c-6.67496297 0-13.1072-2.66998518-17.84035555-7.52450371-4.85451852-4.73315555-7.5245037-11.28675555-7.40314075-18.08308148z"  horiz-adv-x="1024" />

    
    <glyph glyph-name="close" unicode="&#58883;" d="M512 434.91643092L325.39044054 621.568a36.00278934 36.00278934 0 1 1-50.91642988-50.91643092L461.04155946 384l-186.65157012-186.60955946a36.00278934 36.00278934 0 1 1 50.91643093-50.91642988L512 333.04155946000003l186.60955946-186.65157012a36.00278934 36.00278934 0 1 1 50.91642988 50.91643093L562.95844054 384l186.65157012 186.60955946a36.00278934 36.00278934 0 1 1-50.91643093 50.91642988L512 434.95844054z"  horiz-adv-x="1024" />

    
    <glyph glyph-name="tuichu" unicode="&#59108;" d="M683.20003701 608.93541241c-14.99086619 6.59018755-21.79831267 24.11574126-15.20812512 39.10660744s24.11574126 21.79831267 39.10660744 15.20812511c1.1587143-0.50693751 2.31742859-1.08629466 3.47614288-1.81049108l0.14483928 0.21725892c96.17328644-63.29476834 159.54047442-171.77939415 159.54047442-294.89278793 0-195.24335861-159.39563513-353.55269909-355.94254732-353.55269909S158.23004198 171.52076625999996 158.23004198 366.76412487000005c0 123.18581343 63.36718798 231.59801959 159.54047441 294.89278793l0.07241965-0.21725893c14.99086619 6.59018755 32.51641989-0.21725894 39.10660744-15.20812511 6.0108304-13.61489296 0.94145537-29.54721451-11.80440188-37.29611635-77.05450058-53.2284379-127.60341167-141.79766179-127.60341167-242.17128754 0-162.72693873 132.81762599-294.675529 296.63085937-294.675529s296.63085938 131.87617063 296.63085938 294.675529c0 100.37362576-50.47649146 189.01526928-127.60341167 242.17128754zM514.1725893 754.78857422c16.3668394 0 29.69205379-13.25279475 29.69205379-29.69205379v-355.94254733c0-16.3668394-13.32521438-29.61963415-29.69205379-29.61963416s-29.61963415 13.25279475-29.61963415 29.61963417V725.09652043C484.48053551 741.53577948 497.8057499 754.78857422 514.1725893 754.78857422z"  horiz-adv-x="1024" />

    
    <glyph glyph-name="xiaoxi" unicode="&#58913;" d="M336.04296875 685.2890625L284.890625 736.44140625C199.4609375 671.31445313 142.94726562 570.15234375 137.5859375 455.71875h71.54296875c5.36132813 94.74609375 53.96484375 177.71484375 126.9140625 229.5703125z m478.828125-229.5703125H886.4140625C881.05273438 570.15234375 824.5390625 671.40234375 738.7578125 736.44140625l-51.15234375-51.15234375c73.30078125-51.85546875 121.90429688-134.82421875 127.265625-229.5703125z m-70.40039063-17.9296875c0 109.77539063-76.20117188 201.70898438-178.76953124 225.96679688V688.1015625c0 29.70703125-23.99414063 53.61328125-53.61328126 53.61328125-29.70703125 0-53.61328125-23.99414063-53.61328125-53.61328125v-24.34570313c-102.65625-24.34570313-178.76953125-116.19140625-178.76953124-225.96679687v-196.69921875L208.16210937 169.546875v-35.77148438H816.1015625V169.546875l-71.54296875 71.54296875V437.7890625zM512 26.548828120000053c5.00976563 0 9.66796875 0.3515625 14.32617188 1.40625001 23.203125 4.65820313 42.5390625 20.7421875 51.50390624 42.1875 3.60351563 8.61328125 5.71289063 17.84179688 5.71289063 27.86132812H440.45703125c0-39.28710938 32.16796875-71.45507813 71.54296875-71.45507813z m0 1e-8"  horiz-adv-x="1024" />

    
    <glyph glyph-name="time" unicode="&#59349;" d="M521.41685253 747.49051343c-207.17075878 0-374.79073631-167.61997753-374.79073631-374.79073631s167.61997753-374.79073631 374.79073631-374.79073709 374.79073631 167.61997753 374.79073709 374.79073709c0 207.17075878-167.61997753 374.79073631-374.79073709 374.79073631z m150.66964282-516.0435266c-5.65011183-7.53348218-15.06696435-11.30022289-26.36718724-11.30022365-7.53348218 0-15.06696435 1.88337035-20.71707618 7.53348217l-129.95256665 105.46875052c-7.53348218 5.65011183-11.30022289 15.06696435-11.30022365 26.36718724v154.43638353c0 18.83370506 15.06696435 32.01729907 32.01729907 32.01729906 18.83370506 0 32.01729907-15.06696435 32.01729986-32.01729907v-139.36941916l116.76897261-96.05189722c16.95033472-11.30022289 18.83370506-32.01729907 7.53348218-47.08426342z m0 0"  horiz-adv-x="1024" />

    
    <glyph glyph-name="add" unicode="&#58906;" d="M512 810.666667C277.333333 810.666667 85.333333 618.666667 85.333333 384s192-426.666667 426.666667-426.666667 426.666667 192 426.666667 426.666667S746.666667 810.666667 512 810.666667z m0-768c-187.733333 0-341.333333 153.6-341.333333 341.333333S324.266667 725.333333 512 725.333333s341.333333-153.6 341.333333-341.333333-153.6-341.333333-341.333333-341.333333zM512 597.333333c-23.466667 0-42.666667-19.2-42.666667-42.666666v-128h-128c-23.466667 0-42.666667-19.2-42.666666-42.666667s19.2-42.666667 42.666666-42.666667h128v-128c0-23.466667 19.2-42.666667 42.666667-42.666666s42.666667 19.2 42.666667 42.666666v128h128c23.466667 0 42.666667 19.2 42.666666 42.666667s-19.2 42.666667-42.666666 42.666667h-128v128c0 23.466667-19.2 42.666667-42.666667 42.666666z"  horiz-adv-x="1024" />

    
    <glyph glyph-name="eye-open" unicode="&#60364;" d="M512 597.333333c-162.133333 0-285.866667-68.266667-375.466667-213.333333 89.6-145.066667 213.333333-213.333333 375.466667-213.333333s285.866667 68.266667 375.466667 213.333333c-89.6 145.066667-213.333333 213.333333-375.466667 213.333333z m0-469.333333c-183.466667 0-328.533333 85.333333-426.666667 256 98.133333 170.666667 243.2 256 426.666667 256s328.533333-85.333333 426.666667-256c-98.133333-170.666667-243.2-256-426.666667-256z m0 170.666667c46.933333 0 85.333333 38.4 85.333333 85.333333s-38.4 85.333333-85.333333 85.333333-85.333333-38.4-85.333333-85.333333 38.4-85.333333 85.333333-85.333333z m0-42.666667c-72.533333 0-128 55.466667-128 128s55.466667 128 128 128 128-55.466667 128-128-55.466667-128-128-128z"  horiz-adv-x="1024" />

    
    <glyph glyph-name="shezhi" unicode="&#58899;" d="M644.09375-20.625c-22.59375 0-45.28125 9.46875-59.4375 24.5625l-8.34375 9c-16.40625 15.5625-39.75 24.84375-64.3125 24.84375-24.46875 0-47.8125-9.28125-65.625-26.15625l-7.03125-7.59375c-20.0625-21.28125-57.09375-30.375-84.375-20.34375-1.59375 0.5625-17.90625 6.75-52.78125 26.8125-34.875 20.15625-48.46875 31.3125-49.875 32.53125-22.59375 19.3125-33.09375 55.03125-24.375 83.15625l3.375 11.4375c5.34375 22.125 1.6875 46.96875-10.59375 68.34375-12.1875 21.28125-31.875 36.84375-55.40625 43.78125l-10.125 2.25c-28.78125 6.375-54.5625 33.28125-59.8125 62.625-0.28125 1.6875-3.1875 19.03125-3.1875 59.34375 0 40.40625 2.90625 57.65625 3.28125 59.53125 5.34375 29.0625 31.03125 55.875 59.8125 62.53125l12.28125 2.8125c21.46875 6.375 41.15625 21.9375 53.4375 43.125 12.1875 21 15.75 45.84375 10.125 69.9375l-3.09375 10.125c-8.625 28.3125 1.875 64.03125 24.46875 82.96875 1.21875 1.03125 14.625 12.28125 49.6875 32.625 34.96875 20.0625 51.28125 26.25 53.0625 26.90625 28.125 10.125 64.78125 0.65625 84.375-20.34375l8.53125-9.1875c16.3125-15.46875 39.5625-24.75 64.125-24.75 24.46875 0 47.625 9.1875 65.15625 25.78125l7.5 8.15625c19.96875 21.1875 57 30.28125 84.28125 20.25 1.875-0.65625 18-6.84375 52.6875-26.8125 34.96875-20.15625 48.5625-31.3125 49.96875-32.53125 22.6875-19.3125 33.09375-55.03125 24.375-83.15625l-3.75-11.34375c-5.34375-23.25-1.59375-47.625 10.5-68.71875 12.09375-20.90625 31.6875-36.375 55.03125-43.40625l10.6875-2.4375c28.59375-6.28125 54.46875-33.1875 59.71875-62.53125 0.28125-1.78125 3.28125-19.125 3.375-59.34375 0-40.5-2.90625-57.75-3.28125-59.625-5.34375-29.0625-31.03125-55.875-59.8125-62.53125l-11.90625-2.71875c-21.75-6.5625-41.4375-22.125-53.625-43.3125-12.1875-21-15.75-45.65625-10.125-69.5625l3.1875-10.5c8.625-28.21875-1.875-64.03125-24.5625-82.96875-1.21875-1.03125-14.71875-12.375-49.78125-32.53125-34.875-19.96875-51.1875-26.15625-52.96875-26.8125-7.78125-2.8125-16.125-4.21875-24.84375-4.21875zM512 99.5625c40.5 0 78.9375-15.375 108.1875-43.21875l9.65625-10.3125c1.875-2.0625 7.875-4.875 14.15625-4.875 2.25 0 3.46875 0.375 3.9375 0.5625 0 0 13.59375 5.25 43.21875 22.3125 29.625 17.0625 40.6875 26.15625 40.78125 26.25 3.75 3.1875 6.5625 13.03125 5.15625 17.8125l-3.75 12.375c-9.75 41.0625-3.75 81.75 16.3125 116.4375 20.0625 34.78125 52.5 60.46875 91.3125 72l13.875 3.28125c4.78125 1.125 12 8.625 12.84375 13.40625 0 0 2.25 14.25 2.25 48.375-0.1875 34.3125-2.4375 48.65625-2.4375 48.75-0.84375 4.59375-7.875 12-12.5625 13.03125l-13.03125 3c-40.3125 12.09375-72.46875 37.5-92.625 72.1875-20.34375 35.25-26.25 76.21875-16.78125 115.3125 0.1875 0.84375 0.46875 1.6875 0.75 2.53125l4.03125 12c1.21875 4.03125-1.6875 13.875-5.53125 17.15625 0 0-11.34375 9.09375-40.78125 26.15625-29.90625 17.15625-43.3125 22.40625-43.5 22.5 0 0-1.21875 0.375-3.375 0.375-5.90625 0-12-2.625-14.34375-5.0625l-8.71875-9.28125c-30.375-28.875-68.71875-44.0625-109.03125-44.0625-40.5 0-78.84375 15.28125-108.09375 43.03125l-9.84375 10.5c-1.875 2.0625-7.875 4.875-14.15625 4.875-2.25 0-3.5625-0.375-3.9375-0.5625 0 0-13.59375-5.34375-43.21875-22.3125-29.53125-17.15625-40.6875-26.25-40.78125-26.34375-3.75-3.1875-6.5625-12.9375-5.15625-17.71875l3.65625-12.09375c9.75-41.34375 3.84375-82.125-16.3125-116.90625-20.25-34.96875-52.6875-60.5625-91.40625-71.90625l-14.15625-3.28125c-4.6875-1.03125-11.90625-8.53125-12.75-13.40625 0 0-2.25-14.25-2.25-48.375 0-34.3125 2.34375-48.5625 2.34375-48.65625 0.84375-4.78125 7.78125-12 12.5625-13.03125l12.28125-2.8125c40.6875-11.90625 73.21875-37.59375 93.375-72.75 20.15625-35.0625 26.0625-75.9375 16.6875-115.125l-3.84375-13.21875c-1.59375-5.0625 1.3125-14.90625 5.15625-18.1875 0 0 11.34375-9.09375 40.78125-26.15625 29.8125-17.15625 43.21875-22.3125 43.3125-22.40625 0.1875-0.09375 1.3125-0.46875 3.5625-0.46875 5.90625 0 12 2.625 14.34375 5.0625l8.25 8.8125C433.25 84.28125 471.6875 99.5625 512 99.5625zM512.09375 188.0625c-102.5625 0-186 83.4375-186 186 0 102.46875 83.4375 185.8125 186 185.8125s186-83.4375 186-186C697.90625 271.40625 614.46875 188.0625 512.09375 188.0625z m0 310.03125c-68.53125 0-124.21875-55.6875-124.21875-124.03125 0-68.53125 55.78125-124.21875 124.21875-124.21875 68.34375 0 124.03125 55.6875 124.21875 124.125 0 68.4375-55.6875 124.125-124.21875 124.125z"  horiz-adv-x="1024" />

    
    <glyph glyph-name="user" unicode="&#59735;" d="M512 844.8a460.8 460.8 0 1 0 0-921.6 460.8 460.8 0 0 0 0 921.6zM302.6432 94.36159999999995a335.0528 335.0528 0 0 1-14.4384-35.5328A394.9568 394.9568 0 0 1 512-10.956800000000044a398.8992 398.8992 0 0 1 222.5152 68.4544c-3.9424 10.5472-7.936 21.0432-12.544 30.9248a235.6736 235.6736 0 0 1-419.328 5.9392z m484.5056 7.2192l3.328 0.6656a394.9568 394.9568 0 1 1-551.68 0c2.6112 8.192 5.9392 16.128 9.8816 23.7056a300.8512 300.8512 0 0 0 531.2512-6.6048c3.2768-5.888 7.2192-12.4928 7.2192-17.7664zM347.4432 482.816a164.5568 164.5568 0 1 1 329.1136 0 164.5568 164.5568 0 0 1-329.1136 0zM512 384a98.7648 98.7648 0 1 0 0 197.4784A98.7648 98.7648 0 0 0 512 384z"  horiz-adv-x="1024" />

    
    <glyph glyph-name="news" unicode="&#58884;" d="M716.47753906 334.16601562000005h-25.56958008v-53.19580078h25.56958008a53.23535156 53.23535156 0 0 0 0-106.39160156H307.52246094a52.24658203 52.24658203 0 0 0-51.11938477 53.19580078 52.08837891 52.08837891 0 0 0 51.09960938 53.19580078h25.56958008v53.19580078H307.52246094a106.47070313 106.47070313 0 0 1 0-212.78320312h408.93530273a106.47070313 106.47070313 0 0 1 0 212.78320313zM333.09204102 314.19287109000004V513.13330078a178.92773438 178.92773438 0 0 0 357.81591796 0v-198.94042969h51.11938477V513.13330078a230.04711914 230.04711914 0 0 1-460.0546875 0v-198.94042969h51.11938477z m-51.11938477 0a25.56958008 25.56958008 0 1 1 51.09960937 0 25.56958008 25.56958008 0 1 1-51.07983398 0z m408.95507813 0a25.56958008 25.56958008 0 1 1 25.54980468 26.69677735 26.04418945 26.04418945 0 0 1-25.54980469-26.69677735zM512-11.5078125a104.39428711 104.39428711 0 0 1 102.21899414 106.39160156h-51.09960937a51.15893555 51.15893555 0 1 0-102.23876954 0H409.76123047A104.4140625 104.4140625 0 0 1 512.01977539-11.5078125m0 791.015625a52.26635742 52.26635742 0 0 1-51.11938476-53.19580078h102.23876953A52.24658203 52.24658203 0 0 1 512 779.5078125z"  horiz-adv-x="1024" />

    
    <glyph glyph-name="cai2" unicode="&#58912;" d="M694.37 742.47a120 120 0 0 0 63.54-18.59 115.1 115.1 0 0 0 39.33-42.34l0.87-1.23a58.93 58.93 0 0 0 7.63-15.36 7.92 7.92 0 0 0 0.66-2.36l62.72-271.36a57 57 0 0 0 1.18-15.36v-1.38a111.73 111.73 0 0 0-17-66.36 118.06 118.06 0 0 0-91.3-53.85 61.12 61.12 0 0 0-7.37-1.18H632a319.79 319.79 0 0 0 7-66.87 325 325 0 0 0-8.25-71.68 29.13 29.13 0 0 0-1.89-5.68 117.28 117.28 0 0 0-137.42-80.59A113.71 113.71 0 0 0 399.26 140a42.49 42.49 0 0 0 0.61 5.74 138.94 138.94 0 0 1-98.45 129A31.6 31.6 0 0 0 279 304.6V711a32.06 32.06 0 0 0 32.61 31.49zM344.22 325.95000000000005A201.46 201.46 0 0 0 465 142.90999999999997a36.98 36.98 0 0 0-0.41-3.63 50.27 50.27 0 0 1 40.65-49.56 51.61 51.61 0 0 1 61.44 38.14 28.64 28.64 0 0 0 1.59 5.12 263.7 263.7 0 0 1 5.53 53.46 259.67 259.67 0 0 1-15.36 88 30.71 30.71 0 0 0 4.2 28.56 33 33 0 0 0 26.57 13.2H748a33 33 0 0 0 7.12 1.08 52.52 52.52 0 0 1 42.29 23.91 50.67 50.67 0 0 1 7.68 30.31v4.25a20.42 20.42 0 0 0 0.31 2.46l-62.08 268.36-1.18 1.89a33.64 33.64 0 0 0-2.5 4 51 51 0 0 1-17.41 19.14 52.85 52.85 0 0 1-28.06 7.89H344.22zM186.06 742.47A32 32 0 0 0 218.67 711v-386.33a32.6 32.6 0 0 0-65.17 0V711a32.06 32.06 0 0 0 32.5 31.47z m-0.05 0"  horiz-adv-x="1024" />

    
    <glyph glyph-name="renzheng" unicode="&#58933;" d="M925.344 720.71253333l-40.92266667 0.6368c-0.98133333 0-92.72 1.90933333-187.46986666 38.72213334-97.17653333 37.79626667-159.8048 81.20533333-160.384 81.61066666L511.91466667 858.81386667l-24.6016-17.13066667c-0.57813333-0.40533333-63.2608-43.81546667-160.384-81.61173333-94.6912-36.86826667-186.48746667-38.72-187.296-38.72l-41.152-0.63893334v-399.19466666c0-200.4352 268.9056-412.3328 413.488-412.3328 144.64 0 413.5488 211.8976 413.5488 412.3328l-0.17493334 399.19466666zM511.96906667-31.546666670000036c-120.0992 0-354.2208 190.59946667-354.2208 353.06773334V662.8928c33.86026667 2.31466667 110.60693333 10.7648 190.6528 41.90506667 82.016 31.94986667 141.632 68.06506667 163.62666666 82.1888 23.6128-15.33973333 81.49333333-50.24 163.45066667-82.1888C755.8144 673.6 832.736 665.20533333 866.13333333 662.8928l0.11413334-341.37173333c0.00106667-162.46826667-234.17813333-353.06666667-354.27626667-353.06666667zM758.65173333 345.18186667L600.12053333 186.82346667000002l-66.4416 75.35893333c-10.88213333 12.27093333-29.57866667 13.42933333-41.84746666 2.66133333-12.32746667-10.88-13.4848-29.57653333-2.6048-41.84746666l87.28213333-99.03146667a29.5552 29.5552 0 0 1 21.29813333-9.9552c0.34773333-0.0576 0.6368-0.0576 0.92906667-0.0576 7.86666667 0 15.3952 3.06773333 20.94933333 8.62186667l180.87466667 180.5856c11.57546667 11.57333333 11.57546667 30.32746667 0.05866667 41.96053333-11.58186667 11.584-30.38933333 11.52-41.96693334 0.06186667zM596.52906667 291.424c13.42933333 13.83146667 29.86666667 28.30293333 43.6992 39.76106667-19.85066667 21.1264-43.98933333 38.0864-70.9024 49.83253333 32.41386667 25.00373333 53.65333333 63.89973333 53.65333333 107.89013333 0 75.53066667-61.46666667 137.00053333-136.99946667 137.00053334-75.53066667 0-137.00053333-61.46666667-137.00053333-137.00053334 0-43.87413333 21.12533333-82.59626667 53.36533333-107.65866666-75.53066667-32.528-128.608-107.65226667-128.608-194.99413334 0-16.3808 13.25546667-29.6352 29.6352-29.6352 16.37866667 0 29.632 13.25546667 29.632 29.6352 0 84.33066667 68.58666667 152.9728 152.97493334 152.9728 43.52746667 0.00106667 82.65493333-18.45973333 110.5504-47.80373333zM485.98186667 566.63893333c42.8288 0 77.73333333-34.90133333 77.73333333-77.7312 0-42.83093333-34.90666667-77.67466667-77.73333333-77.67466666-42.82986667 0-77.73226667 34.84373333-77.73226667 77.67466666 0 42.82986667 34.9024 77.7312 77.73226667 77.7312z"  horiz-adv-x="1024" />

    
    <glyph glyph-name="zan2" unicode="&#58901;" d="M694.88 25.059999999999945H312.16a32.06 32.06 0 0 0-32.62 31.49V462.92a31.6 31.6 0 0 0 22.38 29.86 139 139 0 0 1 98.46 129 42.36 42.36 0 0 0-0.62 5.73 113.71 113.71 0 0 0 92.16 111.72 117.29 117.29 0 0 0 137.42-80.59 29.13 29.13 0 0 0 1.89-5.68 325.08 325.08 0 0 0 8.25-71.68 319.12 319.12 0 0 0-7-66.87h122.66a61.12 61.12 0 0 0 7.37-1.18 118 118 0 0 0 91.24-53.86 111.71 111.71 0 0 0 17-66.35v-1.38a57 57 0 0 0-1.18-15.36L806.9 104.94000000000005a7.92 7.92 0 0 0-0.66-2.36 58.93 58.93 0 0 0-7.63-15.36l-0.87-1.23a115 115 0 0 0-39.33-42.34 120 120 0 0 0-63.53-18.59zM344.72 88h349.95a52.93 52.93 0 0 1 28.06 7.88A51 51 0 0 1 740.14 115a33.72 33.72 0 0 0 2.51 4.05l1.17 1.89 62.06 268.39a20.17 20.17 0 0 0-0.31 2.46v4.25a50.6 50.6 0 0 1-7.68 30.31 52.52 52.52 0 0 1-42.29 23.91 33.67 33.67 0 0 0-7.12 1.07H589.71a33 33 0 0 0-26.57 13.21 30.7 30.7 0 0 0-4.25 28.57 259.67 259.67 0 0 1 15.36 88 263.85 263.85 0 0 1-5.53 53.46 29.48 29.48 0 0 0-1.59 5.12 51.61 51.61 0 0 1-61.44 38.14A50.27 50.27 0 0 1 465 628.25a34.16 34.16 0 0 0 0.41-3.63 201.49 201.49 0 0 0-120.69-183.05z m-158.21-62.94A32.06 32.06 0 0 0 154 56.549999999999955v386.3a32.6 32.6 0 0 0 65.18 0v-386.3a32.06 32.06 0 0 0-32.62-31.49z m0 0"  horiz-adv-x="1024" />

    
    <glyph glyph-name="smile" unicode="&#58900;" d="M512 834C263.88251299 834 62 632.11748701 62 384s201.88251299-450 450-450S962 135.88251299 962 384 760.11748701 834 512 834z m0-847.02880459c-218.92719463 0-397.13086846 178.10160996-397.13086846 397.02880459S292.91970957 781.0288045899999 512 781.0288045899999 909.13086846 602.93995195 909.13086846 384s-178.20367471-397.02880459-397.13086846-397.02880459z m195.19732354 272.30664551H316.85370839c-22.35200713 0-34.29349102-25.6180544-20.51485576-43.27511924a273.02109346 273.02109346 0 0 1 431.32229474 0c13.6765705 17.65706484 1.7350875 43.27511924-20.51485577 43.27511924zM445.45429795 489.39379688a26.63869395 26.63869395 0 0 1-14.59514619 23.67883828l-141.15445664 70.66653486a26.47283994 26.47283994 0 0 1-23.67883916-47.35767744l93.7967792-46.9876957-93.7967792-46.94942198a26.44732354 26.44732354 0 0 1 11.83942001-50.11340449 25.94976152 25.94976152 0 0 1 11.83941914 2.85779092l141.15445664 70.62826025a26.17940567 26.17940567 0 0 1 14.5951462 23.5767753z m324.25720137 82.36561552a26.49835547 26.49835547 0 0 1-35.5182583 11.83941914l-141.15445665-70.48792177a26.51111367 26.51111367 0 0 1 0-47.35767745L734.19324102 395.12497207a25.9370042 25.9370042 0 0 1 11.83941914-2.85779092 26.44732354 26.44732354 0 0 1 11.83942002 50.11340362l-93.79678008 46.94942197 93.79678008 46.94942197a26.34525967 26.34525967 0 0 1 11.83941914 35.51825742z m0 0"  horiz-adv-x="1024" />

    
    <glyph glyph-name="caifu" unicode="&#59275;" d="M408.3 247.20000000000005c-17 0-30.4-13.3-30.4-30.4 0-17 13.3-30.4 30.4-30.4h73.3V143c0-17 13.3-30.4 30.4-30.4 16.7 0 30.4 13.6 30.4 30.4v43.5h73.3c17 0 30.4 13.3 30.4 30.4 0 17-13.3 30.4-30.4 30.4h-73.3v27.4h73.3c17 0 30.4 13.3 30.4 30.4 0 17-13.3 30.4-30.4 30.4h-64l70.9 71.9c5.7 5.4 9 12.7 9.1 20.6 0.2 8-3 16-8.7 21.9-5.2 6-13.1 9.4-21.7 9.4-8.2 0-15.3-3-21.4-9.1l-68.1-68.7-68.4 67.8c-5.2 5.9-13 9.3-21.6 9.3-8 0-15.1-2.9-21-8.7-6-5.2-9.4-13.1-9.4-21.7 0-8.2 3-15.3 9-21.3l71.4-71.4h-63.7c-17 0-30.4-13.3-30.4-30.4 0-17 13.3-30.4 30.4-30.4h73.3v-27.4h-73.1zM912.3 227.60000000000002c-2.9 76.2-33.7 149.5-91.4 218-45.5 53.9-98 93.1-134.2 116.6 28.1 31.1 47 67.5 51.9 100.1 4.4 27.9-1.7 53.5-17.7 73.8-20.1 26-44.3 31.5-61.1 31.5-17.9 0-36.7-6-54.5-17.5-17.1 22.6-47 49.2-93.3 49.2h-1.5c-48-0.7-77.8-30.7-91.6-49-18.9 11.4-37 17.2-54 17.2-16.8 0-41-5.4-61-31.4-16.4-20.2-22.8-45.7-18.4-73.9 6.8-43.7 35.2-81.2 51.9-100.1-29.4-18.7-85.6-58.6-134.3-116.3-57.8-68.5-88.5-142-91.4-218.3-2.7-85.8 18-152.3 61.4-197.8 53-55.1 123.3-61 151.1-61H700c27.8 0 98.1 5.9 151 61 44 45.5 64.6 112.1 61.3 197.9zM678 671.2c-4.7-34-35.6-70.4-54.5-85.9l-2.4 0.7h-0.8c-0.9 0.3-2.3 0.6-4 0.6H407.6c-2.4 0-4.4-0.6-5.9-1.1-0.5-0.2-1.1-0.3-1.7-0.5-18.8 15.2-50 51.9-54.8 86.2v0.3c-2 11.6-0.3 20.3 5.4 27.5 6.9 8.3 11.4 8.3 13.6 8.3 13.2 0 32.8-15.3 40.4-23.6 5.7-6.5 13.6-10.1 22.4-10.1 2 0 3.6 0.4 4.6 0.6h0.4l1.1 0.2c10.1 2 18.2 8.9 22.3 19l0.2 0.5c0.2 0.4 16.6 44 55.1 44.5h1.3c38.1 0 54.8-42 55.7-44.4 3-9.5 11.1-16.9 21.3-19.3 3-1.1 5.6-1.1 7.2-1.1 7.8 0 15.8 3.5 22 9.7l0.3 0.3c7.6 8.3 27.2 23.7 40.5 23.7 3.6 0 7.7-0.6 13.3-7.9 5.4-7.4 7.2-16.3 5.7-28.2zM398.3 527.8l0.8-0.2c0.5-0.1 0.9-0.2 1.4-0.4 2.3-0.6 4.8-1.3 7.7-1.3h208.6c3.4 0 6.3 0.9 8.5 1.6h0.1l0.4-0.2c10.5-5.7 65.4-36.7 119.3-89.9 67.9-67 103.7-138.6 106.3-212.6 2.5-68.7-12.4-120.3-44.2-153.3-36.7-37.9-87.4-42-107.5-42H324c-20.1 0-70.8 4.1-107.5 42-31.8 33.1-46.7 84.9-44.3 154 6.9 174.9 202.7 289.3 226.1 302.3z"  horiz-adv-x="1024" />

    
    <glyph glyph-name="kaisuo" unicode="&#58896;" d="M763.33511111 422.912H284.21688889c-41.41511111 0-74.97955555-33.45066667-74.97955556-74.752v-317.21244445c0-41.30133333 33.56444445-74.752 74.97955556-74.752h479.11822222c41.41511111 0 74.97955555 33.45066667 74.97955556 74.752V348.04622222c0 41.30133333-33.56444445 74.86577778-74.97955556 74.86577778zM555.34933333 191.60177778000002v-83.28533333c0-17.408-14.10844445-31.51644445-31.51644444-31.51644445-17.408 0-31.51644445 14.10844445-31.51644444 31.51644445v83.28533333c-18.88711111 10.92266667-31.51644445 31.28888889-31.51644445 54.61333333 0 34.816 28.21688889 63.14666667 63.14666667 63.14666667 34.816 0 63.14666667-28.21688889 63.14666666-63.14666667-0.22755555-23.32444445-12.85688889-43.69066667-31.744-54.61333333z m0 0M366.02311111 563.2c0 2.38933333 0 30.94755555 0.11377778 33.33688889 3.75466667 83.968 72.93155555 152.80355555 157.58222222 152.80355556 87.15377778 0 157.80977778-70.656 157.80977778-157.80977778v-176.69688889l63.14666666-36.864V589.36888889c0 128.11377778-98.87288889 225.62133333-220.95644444 225.62133333-119.808 0-217.20177778-93.86666667-220.84266666-218.56711111-0.11377778-2.38933333-0.11377778-30.83377778-0.11377778-33.22311111h63.26044444z m0 0"  horiz-adv-x="1024" />

    
    </font>
</defs>
</svg>
